<?xml version="1.0" encoding="UTF-8"?><svg id="icon" xmlns="http://www.w3.org/2000/svg" viewBox="0 0 781.99 512"><path d="M672.33,285.5s4.68-2.92,14.7,3.19c3.26,1.98,3.96,13.91.52,19.25-7.37,11.45-25.65,31.48-30.2,31.88-4.55.4-14.75-2.88-13.55-9.89,1.92-11.21,23.81-37.19,28.53-44.44Z" fill="#f2f2f2"/><path d="M656.59,340.53c-3.3,0-8.65-1.47-11.55-4.61-1.63-1.76-2.28-3.87-1.9-6.09,1.46-8.53,14.03-25.15,22.35-36.14,2.73-3.61,5.09-6.73,6.28-8.55.05-.08.12-.15.21-.2.21-.13,5.15-3.07,15.41,3.18,1.42.87,2.18,3.02,2.56,4.67,1.06,4.59.66,11.66-1.82,15.52-7.03,10.93-25.55,31.73-30.7,32.19-.26.02-.53.03-.82.03ZM672.8,286.02c-1.23,1.87-3.45,4.8-6.23,8.48-8.24,10.89-20.69,27.35-22.1,35.56-.31,1.82.21,3.49,1.56,4.95,2.83,3.07,8.45,4.4,11.27,4.15,4-.36,21.76-19.24,29.69-31.57,2.29-3.57,2.64-10.17,1.64-14.49-.45-1.95-1.16-3.34-1.95-3.82-8.63-5.26-13.13-3.6-13.89-3.25Z" fill="#5b4037"/><path d="M660.52,335.38s-1.1,13.3-4.34,14.53c-3.3,1.25-3.03-9.11-3.03-9.11,0,0,3.95-5.89,7.37-5.42Z" fill="#f6cdb1"/><path d="M658.04,326.89c-2.77-2.62-7.8-4.36-12.99.66-2.92,2.82-7.9,10.91-9.3,14.85-1.54,4.32-1.49,12.25-.9,12.82,2.79,2.67,4.51-10.46,4.51-10.46,0,0-.68,8.27-.3,10.29.38,2.02,1.86,5.21,2.94,3.82,1.08-1.39.06-8.86,1.51-11.41,0,0-1.24,15.42,3.2,12.07,0,0,2.27,2.63,3.09-1.45.82-4.08,1.64-9.23,1.63-9.97,0,0,3.83-4.21,8.11-10.34,1.88-2.69,1.46-8.07-1.52-10.88Z" fill="#f6cdb1"/><path d="M646.68,359.34c-.35,0-.64-.27-.67-.62-.02-.22-.42-5.57,1.02-11.31.09-.36.45-.58.82-.49.36.09.58.46.49.82-1.39,5.53-.99,10.82-.99,10.87.03.37-.25.7-.62.72-.02,0-.04,0-.05,0Z" fill="#5b4037"/><path d="M606.71,338.1s-.93-16.28-16.45-32.54c0,0-21.98-2.97-44.89,6.09-.16.4-8.9,18.24-4.84,30.39,3.33,9.96,66.18-3.93,66.18-3.93Z" fill="#f2f2f2"/><path d="M541.58,404.61s18.34,15.27,32.66,4.71c14.32-10.57,9.18-80.95-1.95-94.87-11.13-13.92-26.23-5.51-27.6-2.52-10.31,22.43-10.97,78.76-3.11,92.69Z" fill="#f2f2f2"/><path d="M562.85,413.68c-11.26,0-21.56-8.44-21.7-8.56-.06-.05-.11-.12-.16-.19-7.94-14.07-7.47-70.33,3.08-93.3.85-1.84,5.43-4.83,10.96-5.5,4.76-.58,11.72.31,17.78,7.89,8.05,10.07,13.18,49.46,9.8,75.26-1.41,10.79-4.1,17.71-7.98,20.57-3.78,2.79-7.84,3.83-11.78,3.83ZM542.1,404.17c1.42,1.14,18.52,14.36,31.73,4.6,3.52-2.6,6.1-9.4,7.44-19.67,3.34-25.53-1.64-64.38-9.52-74.24-5.67-7.09-12.13-7.93-16.56-7.39-5.3.65-9.32,3.46-9.9,4.73-4.68,10.18-7.78,28.6-8.31,49.27-.49,19.45,1.51,36.17,5.11,42.69Z" fill="#5b4037"/><path d="M599.7,490.87s-11.62-39.99-16.63-63.45c-2.59-12.14-32.93-11.54-27.51,6.85,7.87,26.74,23.81,63.79,23.81,63.79l20.33-7.19Z" fill="#f6cdb1"/><path d="M576.9,481.67s-1.12,7.07-9.52,10.55c-7.23,3-25.93,6.52-20.95,14.51,4.05,6.49,20.06-.28,33.26.48,13.2.77,16.87,2.45,21.08-3.11,4.21-5.56-1.08-13.23-4.09-23.81l-19.78,1.38Z" fill="#f6cdb1"/><path d="M553.82,510.24c-3.63,0-6.47-.77-7.96-3.16-.96-1.54-1.18-3.05-.66-4.48,1.57-4.3,9.73-6.94,16.29-9.05,2.14-.69,4.15-1.34,5.63-1.95h0c2.8-1.16,5.06-2.85,6.72-5.04-4.9-12.01-13.73-34.4-18.94-52.1-1.77-6.02.28-9.7,2.32-11.73,4.37-4.36,12.3-4.97,17.88-3.32,4.71,1.39,7.85,4.26,8.62,7.86,3.43,16.04,10,39.99,13.61,52.83.83,2.92,1.82,5.56,2.78,8.12,2.5,6.68,4.47,11.96,1.21,16.27-3.64,4.8-7,4.52-15.12,3.85-1.89-.16-4.04-.33-6.53-.48-4.98-.29-10.29.5-15.43,1.26-3.81.57-7.39,1.1-10.41,1.1ZM567.65,492.84h0c-1.53.63-3.57,1.29-5.73,1.99-5.95,1.92-14.09,4.55-15.44,8.24-.38,1.04-.2,2.12.54,3.3,2.26,3.63,9.11,2.61,17.02,1.44,4.96-.74,10.58-1.57,15.7-1.27,2.51.15,4.67.32,6.57.48,8.04.66,10.75.89,13.94-3.33,2.82-3.72.96-8.69-1.39-14.99-.92-2.46-1.96-5.26-2.81-8.23-3.62-12.86-10.19-36.84-13.63-52.92-.66-3.11-3.46-5.61-7.68-6.85-5.2-1.54-12.55-1.01-16.55,2.98-2.55,2.54-3.23,6.14-1.98,10.4,5.24,17.81,14.18,40.42,19.03,52.32.09.22.06.46-.08.65-1.83,2.53-4.36,4.48-7.51,5.79Z" fill="#5b4037"/><path d="M520.23,316.85s16.44.73,19.9-9.35c2.43-7.07-6.74-12.29-16.91-14.12-10.17-1.84-42.75,1.53-46.19,1.97-5.84.74-16.62,6.17-8.66,11.51,7.17,4.81,23.77,8.8,51.85,9.99Z" fill="#f6cdb1"/><path d="M521.08,317.54c-.49,0-.8-.01-.88-.02-25.56-1.08-44.1-4.67-52.2-10.1-3.07-2.06-3.34-4.09-3.02-5.43.91-3.84,7.65-6.76,11.97-7.31,3.99-.51,36.3-3.78,46.39-1.96,8.16,1.47,14.44,4.75,16.8,8.76,1.16,1.98,1.37,4.08.63,6.24-3.15,9.18-16.13,9.82-19.69,9.82ZM514.27,293.51c-13.45,0-34.03,2.11-37.15,2.5-3.93.5-10.1,3.19-10.83,6.28-.32,1.35.51,2.69,2.46,4,7.89,5.3,26.18,8.8,51.5,9.88,0,0,.23,0,.62,0,2.98,0,15.73-.5,18.61-8.9.61-1.77.43-3.5-.52-5.12-2.13-3.63-8.21-6.74-15.87-8.12-2.11-.38-5.21-.53-8.83-.53Z" fill="#5b4037"/><path d="M534.89,249.3c-2.87-.02-5.07.66-7.11,2.67-3.14,3.08-8.39,33.6-9.05,38.99-1.13,9.25.12,18.74,5.95,21.46,18.04,8.43,20.8-16.7,24.83-47.66,1.45-11.17-7.64-15.4-14.62-15.46Z" fill="#f6cdb1"/><path d="M518.53,293.6s-.04,0-.06,0c-.37-.03-.65-.36-.61-.73.06-.66.12-1.33.21-1.99.51-4.16,5.75-35.96,9.24-39.39,2.07-2.03,4.37-2.89,7.59-2.86,4.97.04,9.6,1.97,12.38,5.17,2.51,2.88,3.48,6.6,2.9,11.05-.05.37-.38.63-.75.58-.37-.05-.63-.39-.58-.75.53-4.06-.34-7.42-2.58-10-2.53-2.91-6.79-4.67-11.38-4.71-2.89-.04-4.85.72-6.64,2.48-2.83,2.78-8.05,32.02-8.85,38.59-.08.65-.15,1.3-.2,1.94-.03.35-.32.62-.67.62Z" fill="#5b4037"/><path d="M517.67,282.81s11.71,5.91,29.53,5.31c0,0,7.15-25.99,3.98-36.75-4.31-14.61-14.77-15.45-23.26-8.45,0,0-7.84,10.12-10.25,39.88Z" fill="#f3d09e"/><path d="M550.48,230.74s-22.37,2.78-24.6,17.97c-1.72,11.69,6.07,22.19,6.07,22.19.53,6.51,6.95,33.62,12.74,41.02,0,0,.92-1.31,26.29-3.18,17.07-1.26,19.28-3.18,19.28-3.18l3.92-30.8c3.27-3.86,5.53-16.72,5.07-21.13-.72-6.91-2.52-13.56-6.22-15.98-6.96-4.58-14.86-6.87-14.86-6.87-15.93-1.99-27.69-.04-27.69-.04Z" fill="#f3d09e"/><path d="M544.69,312.6c-.21,0-.4-.1-.53-.26-3.29-4.2-6.78-14.64-9.31-24.17-11.64-2.06-17.24-4.64-17.47-4.75-.25-.12-.4-.38-.39-.65.97-15.85,6.39-32.13,6.44-32.29,6.14-18.88,26.8-20.39,27-20.4.05-.01,11.98-1.94,27.82.04.04,0,.07.01.1.02.08.02,8.08,2.38,15.04,6.96,4.26,2.8,5.89,10.5,6.52,16.48.46,4.36-1.66,17.16-5.1,21.47l-3.89,30.6c-.02.16-.1.32-.23.42-.24.21-2.87,2.1-19.67,3.35-22.51,1.66-25.58,2.86-25.93,3.04-.11.09-.25.14-.4.15h-.02ZM531.95,270.23c.35,0,.64.27.67.62.52,6.4,6.79,32.56,12.3,40.26,3.51-1.22,17.43-2.4,26.01-3.04,14-1.04,17.85-2.49,18.71-2.92l3.88-30.47c.02-.13.07-.25.15-.35,3.13-3.7,5.35-16.47,4.92-20.62-.59-5.68-2.1-12.98-5.92-15.49-6.51-4.28-13.95-6.57-14.63-6.78-15.63-1.94-27.33-.05-27.44-.03-.27.02-20.03,1.48-25.88,19.49-.06.17-5.31,15.96-6.35,31.48,1.46.61,6.79,2.66,16.11,4.36-1.76-6.83-2.97-12.99-3.2-15.78-.03-.37.25-.7.62-.73.02,0,.04,0,.06,0Z" fill="#5b4037"/><path d="M543.48,237c.09,3.24,3.53,17.75,12.95,17.49,9.42-.26,21.24-15.2,21.15-18.44s-7.8-5.65-17.21-5.39c-9.42.26-16.98,3.1-16.89,6.33Z" fill="#f6cdb1"/><path d="M556.18,255.17c-4.14,0-7.71-2.69-10.32-7.81-2.21-4.31-3.01-8.83-3.05-10.35-.09-3.17,6.03-6.7,17.54-7.02,4.64-.13,9,.37,12.32,1.41,3.55,1.11,5.53,2.75,5.58,4.63.05,1.93-3.11,6.68-7.21,10.83-3,3.03-8.88,8.14-14.6,8.3-.09,0-.18,0-.27,0ZM561.77,231.32c-.46,0-.92,0-1.38.02-9.65.27-16.3,3.19-16.23,5.64.04,1.36.82,5.7,2.9,9.77,1.66,3.24,4.58,7.07,9.13,7.07.07,0,.15,0,.23,0,3.84-.11,8.82-2.99,13.68-7.9,4.44-4.5,6.85-8.67,6.82-9.84-.03-1.22-1.77-2.48-4.64-3.38-2.85-.89-6.54-1.37-10.5-1.37Z" fill="#5b4037"/><path d="M547.87,219.26s4.46,4.48,1.16,7.33c-3.29,2.85-8.53,2.06-10.35-1.64-1.81-3.7,4.21-9.78,9.18-5.69Z" fill="#5b4037"/><path d="M563.61,178.12h0c11.71,1.62,20.42,7.93,18.8,19.64l-3.48,12.45c-6.48,22.23-24.3,18.08-24.3,18.08-11.97-1.66-16.93-11.94-15.3-23.65l1.75-12.61c1.62-11.71,10.83-15.53,22.54-13.9Z" fill="#f6cdb1"/><ellipse cx="545.35" cy="202.39" rx="1.62" ry="1.48" transform="translate(232.77 692.97) rotate(-77.86)" fill="#5b4037"/><path d="M552.2,214.91c-3.02,0-4.82-1.47-4.93-1.56-.28-.24-.32-.66-.08-.95.24-.28.66-.32.95-.08.14.11,3.14,2.52,8.01.34.34-.15.74,0,.89.34.15.34,0,.74-.34.89-1.7.76-3.21,1.03-4.5,1.03Z" fill="#5b4037"/><path d="M553.2,208.65c-.31,0-.58-.21-.65-.52,0,0-.21-.84-.79-.9-.56-.05-.75.52-.8.7-.08.36-.43.59-.8.51-.36-.08-.59-.43-.52-.79.14-.67.81-1.91,2.25-1.76,1.22.13,1.81,1.27,1.96,1.93.08.36-.14.72-.5.81-.05.01-.1.02-.15.02Z" fill="#5b4037"/><path d="M550.2,219.17s-.78,11.99-1.78,15.06c0,0,5.57,2.87,15.49,3.39,9.92.51,9.13-3.97,9.13-3.97,0,0-.04-11.42,1.72-17.56l-24.55,3.08Z" fill="#f6cdb1"/><path d="M557.79,229.13c-4.25,0-7.34-1.14-7.57-1.23-.24-.06-7.52-2.07-10.59-10.94-.07-.18-1.91-5.07-1.16-10.8l1.09-7.95c.05-.37.39-.62.76-.58.37.05.63.39.58.76l-1.09,7.94c-.71,5.38,1.07,10.11,1.09,10.16,2.85,8.21,9.67,10.1,9.74,10.12.17.06,10.22,3.76,18.99-2.6.3-.22.72-.15.94.15.22.3.15.72-.15.94-4.35,3.16-8.93,4.02-12.62,4.02Z" fill="#5b4037"/><path d="M553.23,180.45s-5.91,8.24,3.34,12.55c.99.46,2.04.81,3.1,1.06,2.87.69,12.92,3.66,15.14,11.65,0,0-2.55,15.43,3.31,19.77l5.34-2.33s11.83-12.23,5.86-29.73c0,0-10.18-30.71-37.28-14.96l1.18,1.98Z" fill="#5b4037"/><path d="M577.5,202c-.32,0-.6-.22-.66-.55-1.14-5.87-5.29-9.47-12.71-11.02-5.65-1.17-6.56-4.33-6.6-4.46-.1-.36.12-.73.48-.83.36-.1.72.11.82.47.04.12.82,2.51,5.57,3.5,7.89,1.64,12.52,5.71,13.75,12.08.07.37-.17.72-.53.79-.04,0-.09.01-.13.01Z" fill="#f2f2f2"/><path d="M555.12,179.97s-4.74-5.02-9.97-.83c-10.92,8.76-5.17,20.72-5.17,20.72,0,0,13.98-9.8,14.96-16.65l.18-3.23Z" fill="#5b4037"/><path d="M577.65,204.54c1.88.08,6.03,2.41,4.19,8.22-1.84,5.81-9.29,3.55-9.29,3.55l-1.62-9.03c1.74-.82,4.83-2.83,6.72-2.74Z" fill="#f6cdb1"/><path d="M574.37,211.02c-.07,0-.14-.01-.21-.03-.35-.12-.54-.49-.43-.84.31-.96,1.54-2.69,3.96-2.33.37.05.62.4.57.76s-.4.62-.76.57c-1.85-.27-2.43,1.25-2.49,1.42-.1.28-.36.46-.64.46Z" fill="#5b4037"/><ellipse cx="560.17" cy="204.02" rx="1.62" ry="1.48" transform="translate(312.47 746.29) rotate(-85.46)" fill="#5b4037"/><path d="M545.32,227.47s4.46,4.48,1.16,7.33-8.53,2.06-10.35-1.64,4.21-9.78,9.18-5.69Z" fill="#5b4037"/><path d="M583.4,215.68c-.12,0-.24-.03-.34-.1-.32-.19-.42-.6-.23-.92.06-.09,5.5-9.49.78-20.25-.15-.34,0-.74.35-.89.34-.15.74,0,.89.35,5.01,11.41-.61,21.07-.85,21.48-.13.21-.35.33-.58.33Z" fill="#f2f2f2"/><path d="M538.6,234.7s-8.66,2.8-8.92,11.83c-.26,9.03,3.31,11.23,7.45,13.88,0,0-1.83-6.12,4.76-9.56s3.28-13.85.86-15.32l-4.15-.83Z" fill="#5b4037"/><path d="M541.82,237.21c-.94,0-2.39-.18-3.83-1.09-.31-.2-.41-.61-.21-.93.2-.31.61-.41.93-.21,1.88,1.18,3.85.83,3.87.82.36-.07.72.17.79.53s-.16.72-.53.79c-.04,0-.43.08-1.02.08Z" fill="#f2f2f2"/><path d="M548.01,237.56s-.08,0-.12-.01c-.37-.07-.61-.42-.54-.78.9-4.89,1.53-9.85,1.54-9.9.05-.37.38-.63.75-.58.37.05.63.38.58.75,0,.05-.64,5.04-1.55,9.97-.06.32-.34.55-.66.55Z" fill="#5b4037"/><path d="M573.25,238.61c-.35,0-.65-.28-.67-.64-.37-6.77.58-17.22.59-17.33.01-.15.08-.29.18-.39.79-.86,1.43-2.07,1.44-2.08.17-.33.58-.46.91-.28.33.17.46.58.28.91-.03.05-.65,1.23-1.48,2.19-.13,1.54-.91,10.78-.57,16.91.02.37-.26.69-.64.71-.01,0-.02,0-.04,0Z" fill="#5b4037"/><path d="M531.39,296.95c-.11,0-.22-.03-.32-.08-5.55-2.98-12.5-3.27-12.57-3.27-.37-.01-.66-.33-.65-.7.01-.37.37-.68.7-.65.3.01,7.33.3,13.15,3.43.33.18.45.58.28.91-.12.23-.35.35-.59.35Z" fill="#5b4037"/><path d="M532.48,275.24c-.32,0-.6-.23-.66-.56,0-.05-.96-5.54-1.04-10.58,0-.37.29-.68.66-.68h.01c.37,0,.67.29.67.66.08,4.93,1.01,10.31,1.02,10.37.06.37-.18.71-.55.78-.04,0-.08.01-.12.01Z" fill="#5b4037"/><path d="M517.34,365.12c-2.61,3.17-4.14,7.13-4.07,11.23.08,4.8,2.23,10.74,11.01,14.38,16.64,6.9,74.13-20.49,80.62-37.16,6.49-16.67-1.26-31.2-21.01-29-18.18,2.03-54.52,25.95-66.55,40.56Z" fill="#f2f2f2"/><path d="M515.23,368.55c-.14,0-.29-.05-.41-.14-.29-.23-.34-.65-.12-.94,7.78-9.96,25.27-23.62,42.52-33.21.32-.18.73-.06.92.26.18.32.06.73-.26.92-17.12,9.52-34.44,23.03-42.12,32.87-.13.17-.33.26-.53.26Z" fill="#5b4037"/><path d="M567.71,381.97c-.25,0-.5-.14-.61-.39-.16-.34,0-.74.33-.89,19.1-8.82,33.9-19.82,36.84-27.37,3.15-8.1,2.18-15.63.82-20.51-.03-.08-3.4-10.65-10-20.51-.21-.31-.12-.73.18-.93.31-.21.73-.12.93.18,6.71,10.02,10.14,20.76,10.17,20.87,1.43,5.1,2.43,12.93-.85,21.38-2.36,6.05-13.6,17.05-37.53,28.1-.09.04-.19.06-.28.06Z" fill="#5b4037"/><path d="M537.03,394.65s11.81,34.95,23.33,67.96c0,0,19.06-2.74,32.85-11.18,0,0-9.47-34.33-18.57-58.91-9.1-24.58-35.83-18.91-37.6,2.13Z" fill="#f2f2f2"/><path d="M560.36,463.28c-.28,0-.54-.18-.64-.45-11.39-32.64-23.21-67.62-23.33-67.97-.03-.09-.04-.18-.03-.27.84-10,7.43-17.53,16.39-18.75,7.55-1.03,17.45,2.75,22.52,16.45,9.01,24.33,18.5,58.62,18.59,58.97.08.29-.04.6-.3.75-13.74,8.42-32.91,11.25-33.1,11.27-.03,0-.06,0-.1,0ZM537.71,394.57c.81,2.39,12.13,35.83,23.1,67.29,3.17-.52,19.44-3.45,31.61-10.74-1.2-4.29-10.02-35.68-18.42-58.37-4.79-12.95-14.03-16.54-21.07-15.58-6.89.94-14.25,6.68-15.22,17.39Z" fill="#5b4037"/><path d="M559.81,494.5s.88,6.75,18.7,1.53c17.82-5.22,21.76-7.12,21.76-7.12,0,0,4.61,6.88,3.88,19.69,0,1.47-1.19,2.65-2.65,2.65h-54.51c-1.47,0-2.65-1.19-2.65-2.65,0,0-3.84-10.99,15.48-14.1Z" fill="#a87665"/><path d="M601.5,511.93h-54.51c-1.8,0-3.27-1.43-3.33-3.22-.19-.64-.98-3.79,1.02-7.16,2.32-3.89,7.37-6.48,15.02-7.72.18-.03.36.02.51.12.14.11.24.27.26.44.01.06.19.99,1.46,1.78,1.98,1.24,6.43,2.12,16.39-.8,17.49-5.12,21.61-7.06,21.65-7.08.3-.15.67-.05.85.23.19.29,4.73,7.22,3.99,20.1,0,1.8-1.49,3.29-3.33,3.29ZM559.35,495.26c-6.92,1.2-11.46,3.55-13.51,6.98-1.88,3.16-.88,6.11-.87,6.14.02.07.04.15.04.22,0,1.09.89,1.98,1.98,1.98h54.51c1.09,0,1.98-.89,1.98-1.98.61-10.58-2.51-17.08-3.48-18.83-1.6.66-6.95,2.71-21.29,6.91-10.54,3.09-15.37,2.03-17.57.59-1.04-.68-1.54-1.47-1.78-2.01Z" fill="#5b4037"/><path d="M621.36,427.41s-32.87-25.57-50.69-41.64c-9.22-8.31-33.43,9.97-18.26,21.69,22.06,17.04,56.7,37.7,56.7,37.7l12.25-17.75Z" fill="#f6cdb1"/><path d="M596.27,433.61s5.75,6.36,2.93,15.21c-2.37,7.46-10.64,23.59-1.28,24.71,7.59.9,12.51-15.46,21.37-25.28,8.86-9.82,12.47-11.62,10.77-18.39-1.7-6.77-10.99-7.44-21.13-11.71l-12.66,15.46Z" fill="#f6cdb1"/><path d="M598.53,474.24c-.23,0-.46-.01-.69-.04-1.87-.22-3.23-1.02-4.05-2.37-2.44-4.02.62-12.07,3.08-18.53.66-1.73,1.28-3.36,1.7-4.68.96-3.02.99-6.07.09-9.07-11.15-6.93-31.83-20.11-46.66-31.56-4.97-3.84-5.46-8.02-5.01-10.86.98-6.09,7.05-11.24,12.54-13.17,4.63-1.63,8.86-1.15,11.59,1.31h0c10.97,9.89,27.55,23.32,39.56,32.86,2.27.89,4.46,1.61,6.57,2.31,6.78,2.24,12.14,4.01,13.46,9.25,1.47,5.84-.85,8.29-6.46,14.21-1.31,1.38-2.79,2.94-4.46,4.8-3.29,3.65-5.99,8.14-8.6,12.49-4.19,6.98-7.83,13.04-12.65,13.04ZM564.7,384.35c-1.47,0-3.07.29-4.73.88-5.11,1.8-10.76,6.54-11.66,12.12-.57,3.55.99,6.87,4.5,9.58,14.88,11.49,35.68,24.74,46.76,31.62.14.08.24.22.29.37,1.06,3.34,1.05,6.75-.02,10.12-.43,1.36-1.06,3-1.72,4.75-2.23,5.86-5.28,13.9-3.19,17.36.6.99,1.6,1.56,3.06,1.73,4.28.51,7.88-5.45,12.03-12.36,2.52-4.2,5.38-8.96,8.76-12.7,1.68-1.87,3.17-3.44,4.48-4.82,5.55-5.86,7.42-7.83,6.13-12.96-1.14-4.52-6.18-6.19-12.57-8.3-2.16-.71-4.39-1.45-6.74-2.37-.06-.02-.12-.06-.17-.1-12.03-9.56-28.68-23.05-39.7-32.98h0c-1.41-1.27-3.32-1.92-5.51-1.92Z" fill="#5b4037"/><path d="M596.33,455.9s5.82,3.54,12.9-13.63c7.08-17.17,8.06-21.42,8.06-21.42,0,0,8.25.71,17.78,9.3,1.14.92,1.33,2.59.41,3.73l-34.11,42.51c-.92,1.14-2.59,1.33-3.73.41,0,0-10.97-3.88-1.31-20.9Z" fill="#a87665"/><path d="M599.3,478.06c-.72,0-1.41-.23-1.99-.66-.62-.25-3.58-1.61-4.95-5.28-1.58-4.24-.44-9.8,3.38-16.54.09-.16.24-.27.42-.32.17-.05.36-.02.51.07.05.03.88.47,2.31-.02,2.21-.77,5.67-3.69,9.63-13.28,6.95-16.85,8.02-21.28,8.03-21.32.08-.33.37-.55.71-.52.35.03,8.59.82,18.18,9.47,1.4,1.12,1.63,3.22.48,4.65l-34.11,42.51c-.56.69-1.35,1.13-2.23,1.22-.12.01-.25.02-.37.02ZM596.64,456.74c-3.39,6.13-4.4,11.13-3.02,14.88,1.27,3.44,4.23,4.54,4.26,4.55.07.02.14.06.19.11.41.33.93.48,1.46.42.53-.06,1-.32,1.33-.73l34.11-42.51c.68-.85.55-2.1-.31-2.78-7.87-7.09-14.89-8.74-16.87-9.07-.48,1.66-2.24,7.12-7.93,20.93-4.19,10.15-8.04,13.26-10.53,14.08-1.18.39-2.11.29-2.68.13Z" fill="#5b4037"/><path d="M516.39,384.68s27.59,22.61,55.45,41.8c0,0,13.13-12.73,19.17-27.24,0,0-21.01-18.79-42.17-32.78-21.16-13.99-42.94.2-32.45,18.22Z" fill="#f2f2f2"/><path d="M571.84,427.15c-.13,0-.27-.04-.38-.12-22.02-15.17-44.17-32.32-52.67-38.99-4.44-3.48-6.78-8.76-6.27-14.11.21-2.26,1.06-4.67,2.31-6.63.2-.31.62-.4.93-.2.31.2.4.62.2.93-1.13,1.76-1.91,4.02-2.11,6.04-.47,4.9,1.69,9.73,5.76,12.93,8.43,6.62,30.3,23.56,52.14,38.62,2.19-2.21,13.03-13.53,18.43-26.17-3.23-2.64-25.66-20.95-38.25-30.08-.3-.22-.37-.64-.15-.94.22-.3.64-.37.94-.15,13.55,9.83,38.45,30.24,38.7,30.45.23.19.31.5.19.78-6.02,14.47-19.19,27.34-19.32,27.46-.13.13-.3.19-.47.19Z" fill="#5b4037"/><path d="M563.1,321.16s14.34-.98,28.3-5.55c0,0,8.63,17.13,11.04,20.3,2.41,3.17,4.06,13.14-3.17,19.29-8.09,6.88-25.11,11.49-32.34,7.43-7.23-4.06-2.93-34.87-3.82-41.47Z" fill="#a87665"/><path d="M594.18,323.69s.9-51.93,2.74-64.12l-6.17,4.37s-2.68,44.11-.97,57.15c0,0,1.27,3.31,4.4,2.6Z" fill="#a87665"/><path d="M563.22,324.49s-3.74-50.63,15.86-93.84c0,0,3.81.57,4.47,1.9,0,0-18.56,41.7-15.13,90.99,0,0-3.56,1.7-5.21.94Z" fill="#a87665"/><path d="M584.22,338.24c-2.28,0-6.84-.88-9.54-1.49-9-2.03-9.42-3.26-9.56-3.67-1.27-3.73.28-10.17.35-10.44.09-.36.45-.58.81-.49.36.09.58.45.49.81-.02.06-1.53,6.33-.38,9.68.92,1.31,16.29,4.84,18.46,4.2,1.86-.55,8.49-8.13,8.92-9.1.07-.75-1.92-5.89-3.33-9.07-.15-.34,0-.74.34-.89.34-.15.74,0,.89.34.64,1.45,3.83,8.77,3.36,10.09-.37,1.05-7.36,9.21-9.8,9.93-.24.07-.59.1-1.02.1Z" fill="#5b4037"/><circle cx="585.13" cy="337.44" r="2.78" fill="#5b4037"/><path d="M574.32,364.76c-3.16,0-5.88-.51-7.74-1.55-5.53-3.11-4.81-19.64-4.28-31.72.12-2.74.22-5.1.24-7.02-.15-2.02-3.47-51.35,15.93-94.1.12-.27.41-.43.71-.39.69.1,4.19.7,4.98,2.27.09.18.09.39.01.57-.18.4-17.55,40.07-15.29,87.03,5.06-.67,12.35-1.9,19.8-4.12-.73-16.75,1.37-51.5,1.39-51.85.01-.2.12-.39.28-.51l6.17-4.37c.22-.16.51-.17.74-.02.23.14.35.41.31.67-1.56,10.36-2.44,49.32-2.68,61.32,4.08,7.88,6.94,13.04,8.07,14.52h0c2.73,3.59,4.05,13.98-3.27,20.21-6.96,5.93-17.54,9.06-25.37,9.06ZM579.49,231.4c-19.02,42.33-15.74,90.97-15.59,93.03-.02,2-.12,4.37-.24,7.12-.48,11.07-1.21,27.79,3.6,30.49,6.03,3.39,22.43.43,31.58-7.36,7.16-6.1,5.08-15.73,3.07-18.37-1.51-1.99-5.33-9.18-8.27-14.87-.05-.1-.08-.21-.08-.32.22-11.29,1.04-47.77,2.49-60.12l-4.64,3.29c-.21,3.6-2.09,36.29-1.34,51.91.01.31-.18.59-.48.68-8.08,2.45-16.01,3.75-21.25,4.41-.18.02-.37-.03-.52-.15-.14-.12-.23-.29-.24-.48-2.37-45.22,13.46-83.9,15.21-88.01-.56-.53-2.09-1-3.3-1.24Z" fill="#5b4037"/><path d="M585.11,247.84c-2.52,1.37-4.11,3.04-4.92,5.79-1.24,4.22,9,33.44,11.05,38.47,3.51,8.63,9.45,15.42,15.87,14.97,19.86-1.4,9.82-23.8-1.7-52.82-4.16-10.47-14.17-9.75-20.29-6.41Z" fill="#f6cdb1"/><path d="M606.48,307.77c-7.06,0-12.8-7.87-15.87-15.41-1.58-3.88-12.46-34.21-11.07-38.92.82-2.78,2.39-4.63,5.24-6.19,4.36-2.38,9.35-2.94,13.33-1.5,3.59,1.3,6.25,4.07,7.91,8.25l1.74,4.37c8.13,20.37,14.56,36.46,9.58,44.4-1.88,3-5.21,4.62-10.19,4.97-.23.02-.45.02-.67.02ZM593.42,246.31c-2.63,0-5.42.72-7.99,2.13h0c-2.51,1.37-3.89,2.98-4.59,5.39-1.12,3.81,8.53,31.9,11.02,38.03,4.55,11.2,10.83,14.86,15.2,14.55,4.52-.32,7.51-1.74,9.15-4.35,4.62-7.36-2.01-23.96-9.69-43.19l-1.74-4.37c-1.51-3.8-3.91-6.32-7.12-7.48-1.31-.47-2.75-.71-4.24-.71ZM585.11,247.84h0,0Z" fill="#5b4037"/><path d="M586.34,285.5s13.11-.53,28.39-9.71c0,0-7.48-25.29-15.48-33.16-10.86-10.67-19.32-7.22-23.34,3.03,0,0-1.93,12.66,10.43,39.84Z" fill="#f3d09e"/><path d="M586.34,286.18c-.26,0-.5-.15-.61-.39-2.97-6.54-5.37-12.8-7.13-18.62-.11-.36.09-.73.45-.84.36-.11.73.09.84.45,1.7,5.63,4.02,11.69,6.88,18.03,2.39-.2,13.98-1.51,27.18-9.32-1.09-3.58-7.96-25.34-15.16-32.36-5.95-5.81-14.47-9.74-16.42-10.47-.35-.13-.52-.52-.39-.87s.52-.52.87-.39c3.1,1.17,11.32,5.33,16.89,10.77,8.07,7.87,15.35,32.41,15.66,33.45.09.29-.04.61-.3.77-15.26,9.16-28.58,9.8-28.71,9.81,0,0-.02,0-.03,0Z" fill="#5b4037"/><path d="M604.02,286.49s-19,12.42-28.33,18.36c-7.02,4.47-19.97,12.13-20.58,17.92-.61,5.79,2.41,8.51,9.01,8.46,6.6-.05,35.98-11.77,49.19-24.59,9.8-9.51-3.39-23.73-9.29-20.16Z" fill="#f6cdb1"/><path d="M592.28,294.82c-.3,0-.57-.2-.65-.51-.09-.36.13-.73.49-.82.21-.05,5.25-1.32,10.65-.2.36.08.6.43.52.8-.08.36-.44.6-.8.52-5.1-1.05-9.99.17-10.04.18-.06.01-.11.02-.17.02Z" fill="#5b4037"/><path d="M575.19,322.11c-.45-6.73,1.99-17.14-4.13-14.3-4.11,1.9-24.9,14.96-26.95,19.13-3.66,7.41-1.72,15.94-1.21,16.7,2.4,3.59,4.36-13.02,4.36-13.02,0,0-.58,9.72-.13,11.96.45,2.24,2.13,5.78,3.32,4.22,1.19-1.56.24-9.27,1.46-13.23,0,0-1.21,17.2,3.71,13.42,0,0,2.56,2.91,3.43-1.65.86-4.56,1.72-10.3,1.7-11.13,0,0,5.76.08,11.79-5.35,2.01-1.81,2.79-4.28,2.62-6.75Z" fill="#f6cdb1"/><path d="M555.64,347.66c-.35,0-.64-.27-.67-.62-.02-.29-.58-7.15.95-13.55.09-.36.46-.58.81-.5.36.09.58.45.5.81-1.48,6.18-.93,13.06-.92,13.12.03.37-.24.7-.61.73-.02,0-.04,0-.06,0Z" fill="#5b4037"/><path d="M557.3,348.58c-.71,0-1.34-.4-1.74-.73-.93.53-1.64.38-2.09.14-.86-.46-1.42-1.7-1.78-3.28-.11,1.17-.31,2-.69,2.5-.54.71-1.16.69-1.49.61-1.59-.37-2.73-3.6-3.03-5.11-.11-.53-.16-1.45-.18-2.54-.94,3.58-1.86,4.48-2.44,4.62-.32.08-.95.08-1.52-.77-.58-.87-2.63-9.68,1.16-17.37,2.18-4.41,23.29-17.59,27.27-19.44.33-.16.74-.01.89.33.16.34,0,.74-.33.89-4.39,2.04-24.75,15.01-26.63,18.81-3.44,6.97-1.76,15.15-1.25,16.04.06.08.1.13.13.17.97-.74,2.32-7.17,3-12.9.04-.36.37-.62.73-.59.36.03.63.35.61.71-.16,2.68-.49,10.02-.14,11.79.41,2.04,1.56,4.03,2.02,4.07,0,0,.04-.03.11-.12.46-.61.53-3.13.58-5.36.06-2.63.14-5.6.77-7.66.1-.33.43-.52.77-.46.34.06.57.37.55.71-.35,4.95-.11,12.31,1.51,13.18.26.14.64.03,1.12-.34.28-.22.68-.18.92.09.23.26.87.78,1.28.67.39-.11.76-.86.98-2,.89-4.7,1.71-10.29,1.69-10.99,0-.18.07-.36.2-.49.13-.13.3-.2.48-.2,0,0,0,0,0,0,.16,0,5.64-.05,11.33-5.18.28-.25.7-.23.95.05.25.28.23.7-.05.95-5.06,4.55-9.9,5.36-11.61,5.49-.19,1.9-.97,6.88-1.67,10.61-.34,1.78-.97,2.78-1.95,3.05-.16.04-.32.06-.48.06ZM543.66,343.48h0,0Z" fill="#5b4037"/><path d="M581.85,222.07s5.33,3.4,2.74,6.9c-2.59,3.5-7.88,3.87-10.46.66-2.58-3.21,1.97-10.46,7.72-7.56Z" fill="#5b4037"/><path d="M581.16,230.64s5.33,3.4,2.74,6.9-7.88,3.87-10.46.66c-2.58-3.21,1.97-10.46,7.72-7.56Z" fill="#5b4037"/><path d="M576.18,239.16s-7.84,4.62-6.12,13.49c1.72,8.87,5.68,10.23,10.31,11.92,0,0-3.12-5.57,2.56-10.37s.17-14.23-2.51-15.13l-4.23.09Z" fill="#5b4037"/><path d="M578.35,240.98c-.79,0-1.71-.11-2.75-.44-.35-.11-.55-.49-.44-.85.11-.35.49-.55.85-.44,2.77.88,4.5-.02,4.57-.06.33-.17.73-.05.91.27.18.32.06.73-.26.91-.06.04-1.12.61-2.88.61Z" fill="#f2f2f2"/><path d="M572.57,329.53c-.28,0-.54-.17-.64-.45-.12-.35.06-.73.41-.86,13.15-4.59,31.44-13.45,40.5-22.06.06-.05,2.91-2.46,4.47-6.76.13-.35.52-.53.86-.4.35.13.53.51.4.86-1.69,4.66-4.72,7.2-4.85,7.31-9.17,8.72-27.66,17.7-40.95,22.33-.07.03-.15.04-.22.04Z" fill="#5b4037"/><path d="M571.07,308.48c-.22,0-.44-.11-.57-.31-.2-.31-.11-.73.21-.93,4.13-2.63,15.63-10.04,21.2-13.66.31-.2.73-.11.93.2.2.31.11.73-.2.93-5.58,3.63-17.08,11.04-21.22,13.67-.11.07-.24.11-.36.11Z" fill="#5b4037"/><path d="M503.16,173.67s-.16-11.75-5.29-19.48c-4.85-7.31-16.79-6.53-16.79-6.53v-14.57s14.97,2.89,24.58,13.87c9.6,10.98,7.94,26.72,7.94,26.72h-10.44Z" fill="#5b4037"/><path d="M19.86,173.67s-.29-12.18,4.9-17.37c9.24-9.22,16.54-8.64,16.54-8.64v-14.57s-14.48,3.34-24.09,14.31-7.86,26.28-7.86,26.28h10.51Z" fill="#5b4037"/><path d="M468.91,399.55s-.34,37.5,0,59.48c.32,20.91,2.06,37.91-11.33,47.71-7.67,5.61-49.06,7.19-58.2-2.24-9.35-9.65-7.89-40.63-7.96-57.97-.07-18.84-.33-43.19-.33-43.19l77.81-3.79Z" fill="#5b4037"/><path d="M54.34,399.55s.34,37.5,0,59.48c-.32,20.91-2.06,37.91,11.33,47.71,7.67,5.61,49.06,7.19,58.2-2.24,9.35-9.65,7.89-40.63,7.96-57.97.07-18.84.33-43.19.33-43.19l-77.81-3.79Z" fill="#5b4037"/><path d="M486.7,341.97s-.59-33.93,0-57.83c.59-23.9,3.59-123.35-.26-161.56-3.48-34.55-9.01-73.74-77.15-103.82-13.9-6.13-33.12-11.98-50.08-14.02C323.38.44,283.27.39,218.59.87,113.08,1.66,82.58,37.92,73.76,45.56c-8.82,7.64-35.89,43.51-38.72,97.01-2.83,53.5,0,202.34,0,202.34l451.66-2.94Z" fill="#f3d09e"/><path d="M35.4,348.25c-.37,0-.67-.29-.67-.66-.03-1.52-3.16-152.14-.36-205.06,2.93-55.46,31.47-91,38.95-97.49.64-.55,1.39-1.26,2.28-2.09C86.71,32.57,120.52.93,218.59.2c63.54-.47,104.73-.45,140.7,3.88,15.58,1.87,34.85,7.27,50.27,14.07,30.66,13.53,51.31,30.05,63.14,50.51,10.88,18.82,12.93,39.07,14.42,53.86,3.56,35.25,1.29,122.01.44,154.67-.07,2.75-.13,5.1-.18,6.98-.58,23.61,0,57.46,0,57.8,0,.18-.07.35-.19.48s-.3.2-.47.2l-451.3,5.61h0ZM261.52,1.35c-13.13,0-27.36.09-42.93.2-97.54.72-131.06,32.09-142.08,42.4-.9.84-1.67,1.56-2.32,2.12-7.39,6.4-35.58,41.56-38.49,96.54-2.7,51.06.12,193.26.35,204.29l449.95-5.59c-.08-4.91-.53-35.39.01-57.18.05-1.88.11-4.23.18-6.98.85-32.64,3.11-119.33-.44-154.5-3.26-32.36-7.33-72.62-76.76-103.27-15.31-6.76-34.43-12.11-49.89-13.97-27.09-3.26-57.17-4.07-97.6-4.07Z" fill="#5b4037"/><path d="M62.04,266.12l4.87,3.89c8.79,7.02,19.7,10.84,30.95,10.84h323.33c9.63,0,19.05-2.8,27.12-8.07l10.36-6.77c7.16-4.68,11.48-12.66,11.48-21.22v-85.51c0-20.65-16.74-37.38-37.38-37.38H89.9c-20.65,0-37.38,16.74-37.38,37.38v87.03c0,7.7,3.51,14.99,9.53,19.8Z" fill="#f2f2f2"/><path d="M421.19,281.52H97.86c-11.36,0-22.5-3.9-31.37-10.99l-4.32-3.45c-6.57-5.24-10.33-13.07-10.33-21.47v-86.33c0-20.98,17.07-38.05,38.05-38.05h342.87c20.98,0,38.05,17.07,38.05,38.05v84.72c0,9.31-4.66,17.91-12.45,23l-9.7,6.33c-8.19,5.35-17.7,8.18-27.49,8.18ZM89.9,122.58c-20.24,0-36.71,16.47-36.71,36.71v86.33c0,7.99,3.58,15.43,9.82,20.42l4.32,3.45c8.64,6.9,19.48,10.7,30.53,10.7h323.33c9.53,0,18.78-2.75,26.75-7.96l9.7-6.33c7.42-4.84,11.84-13.02,11.84-21.88v-84.72c0-20.24-16.47-36.71-36.71-36.71H89.9Z" fill="#5b4037"/><path d="M35.82,341.97c2.92-25.63,19.09-34.44,31.93-35.61,12.84-1.18,32.67.59,41.42,0,8.75-.59,8.75-8.23,11.67-19.99,2.92-11.76,6.58-39.65,25.25-44.35,14.69-3.7,71.66-8.13,115.18-7.56,43.51-.57,100.48,3.86,115.18,7.56,18.67,4.7,22.33,32.59,25.25,44.35,2.92,11.76,2.92,19.4,11.67,19.99,8.75.59,28.59-1.18,41.42,0,12.84,1.18,29.01,9.98,31.93,35.61,1.34,11.73.55,47.83.55,47.83l-225.99.19-225.99-.19s-.79-36.1.55-47.83Z" fill="#a87665"/><path d="M261.26,390.67l-225.99-.19c-.37,0-.66-.29-.67-.66,0-.36-.77-36.28.55-47.92h0c3.55-31.15,25.8-35.59,32.53-36.21,7.42-.68,17.15-.38,25.74-.12,6.18.19,12.02.37,15.7.12,6.82-.46,7.88-5.28,9.81-14.05.38-1.72.77-3.51,1.25-5.44.35-1.42.73-3.13,1.12-4.93,2.92-13.34,7.82-35.68,24.62-39.91,15.13-3.81,72.46-8.14,115.35-7.58,42.86-.56,100.2,3.77,115.33,7.58,16.8,4.23,21.69,26.57,24.62,39.91.39,1.8.77,3.51,1.12,4.93.48,1.93.87,3.71,1.25,5.44,1.93,8.76,2.99,13.59,9.81,14.05,3.69.25,9.52.07,15.7-.12,8.58-.26,18.31-.56,25.74.12,6.74.62,28.99,5.05,32.53,36.21,1.32,11.64.56,47.56.55,47.92,0,.37-.31.66-.67.66l-225.99.19ZM35.93,389.13l225.33.19,225.33-.19c.1-4.95.66-36.4-.56-47.08-3.43-30.14-24.84-34.42-31.32-35.02-7.34-.67-17.03-.38-25.57-.12-6.49.2-12.08.37-15.84.12-7.83-.53-9.1-6.32-11.03-15.1-.38-1.72-.77-3.49-1.24-5.4-.36-1.44-.73-3.15-1.13-4.97-2.86-13.04-7.64-34.87-23.63-38.89-15.05-3.79-72.21-8.1-115-7.54-42.82-.56-99.97,3.74-115.02,7.54-15.99,4.03-20.77,25.85-23.63,38.9-.4,1.81-.77,3.52-1.13,4.97-.47,1.91-.86,3.68-1.24,5.4-1.93,8.78-3.21,14.57-11.04,15.1-3.75.25-9.35.08-15.83-.12-8.55-.26-18.23-.56-25.57.12-6.48.59-27.89,4.87-31.32,35.02l-.67-.08.67.08c-1.22,10.68-.65,42.13-.56,47.08Z" fill="#5b4037"/><path d="M487.25,389.8s-.61,18.29-.74,32.13c-.18,19.69-.39,32.93-19.06,35.87-18.67,2.94-123.69,0-157.53,0-33.84,0-165.69,2.61-177.95,1.31-12.25-1.31-75.13.95-84.6-3.66-12.13-5.91-12.35-36.41-12.11-65.65h451.98Z" fill="#f3d09e"/><path d="M151.99,460.15c-10.34,0-17.6-.11-20.08-.37-4.2-.45-14.5-.47-26.44-.5-23.19-.06-52.04-.13-58.38-3.22-11.99-5.84-12.75-33.46-12.49-66.26,0-.37.3-.67.67-.67h451.98c.18,0,.36.07.48.21s.19.31.19.49c0,.18-.61,18.45-.74,32.12-.18,19.44-.31,33.48-19.63,36.52-13.35,2.1-69.44,1.23-114.51.53-17.91-.28-33.39-.52-43.11-.52-12.12,0-37.38.34-64.12.71-34.07.46-71.26.97-93.81.97ZM35.94,390.48c-.21,26.21-.36,58.47,11.74,64.37,6.06,2.95,35.96,3.03,57.8,3.08,11.97.03,22.31.06,26.58.51,7.82.83,64.09.07,113.74-.6,26.74-.36,52.01-.71,64.14-.71,9.74,0,25.22.24,43.14.52,42.64.66,101.04,1.57,114.29-.51,18.2-2.87,18.32-15.73,18.5-35.21.11-12.17.6-27.97.72-31.45H35.94Z" fill="#5b4037"/><rect x="52.51" y="319.1" width="59.64" height="59.64" rx="14.49" ry="14.49" transform="translate(164.67 697.85) rotate(180)" fill="#f3d09e"/><circle cx="82.33" cy="348.92" r="19.63" fill="#f2f2f2"/><path d="M364.11,52.38s-1.76-14.46,12.64-16.52c14.4-2.06,25.3,1.45,41.46,11.61,19.89,12.52,32.92,31.31,34.98,38.95,2.06,7.64,2.94,16.17-6.47,16.76s-67.03.91-70.55,0c-7.71-2-12.19-7.94-12.12-15.29.07-7.35.07-35.51.07-35.51Z" fill="#a87665"/><path d="M515.41,216.92s4.85-.44,6.17-6.91c1.32-6.47.59-30.57.73-33.81.15-3.23-2.06-6.32-6.17-6.61-4.12-.29-15.53,0-15.53,0,0,0-5.79.44-5.79,6.61s-.29,30.43,0,34.54c.29,4.12,5.14,6.47,7.79,6.76s12.79-.59,12.79-.59Z" fill="#5b4037"/><path d="M6.98,216.92s-4.85-.44-6.17-6.91c-1.32-6.47-.59-30.57-.73-33.81s2.06-6.32,6.17-6.61c4.12-.29,15.53,0,15.53,0,0,0,5.79.44,5.79,6.61,0,6.17.29,30.43,0,34.54-.29,4.12-5.14,6.47-7.79,6.76-2.65.29-12.79-.59-12.79-.59Z" fill="#5b4037"/><rect x="410.51" y="319.1" width="59.64" height="59.64" rx="14.49" ry="14.49" transform="translate(880.66 697.85) rotate(180)" fill="#f3d09e"/><circle cx="440.33" cy="348.92" r="19.63" fill="#f2f2f2"/><rect x="370.21" y="409.32" width="30.77" height="26.29" rx="4.2" ry="4.2" transform="translate(771.2 844.93) rotate(180)" fill="#5b4037"/><rect x="329.73" y="409.32" width="30.77" height="26.29" rx="4.2" ry="4.2" transform="translate(690.23 844.93) rotate(180)" fill="#5b4037"/><rect x="160.84" y="409.32" width="30.77" height="26.29" rx="4.2" ry="4.2" transform="translate(352.44 844.93) rotate(180)" fill="#5b4037"/><rect x="120.35" y="409.32" width="30.77" height="26.29" rx="4.2" ry="4.2" transform="translate(271.48 844.93) rotate(180)" fill="#5b4037"/><circle cx="398.58" cy="72.88" r="19.63" fill="#f3d09e"/><path d="M160.67,52.38s1.76-14.46-12.64-16.52c-14.4-2.06-25.3,1.45-41.46,11.61-19.89,12.52-32.92,31.31-34.98,38.95-2.06,7.64-2.94,16.17,6.47,16.76,9.41.59,67.03.91,70.55,0,7.71-2,12.19-7.94,12.12-15.29-.07-7.35-.07-35.51-.07-35.51Z" fill="#a87665"/><circle cx="126.2" cy="72.88" r="19.63" fill="#f3d09e"/><path d="M353.23,263.73s14.4-.88,14.11,12.94c-.29,13.82.89,52.11,0,64.75-.89,12.64-1.77,18.81-14.12,19.7-12.35.88-149.3-.29-179.3,0-23.47.23-19.43-13.24-20.01-19.08-.59-5.85.15-60.7,0-64.31-.26-6.35,2.63-13.42,12.92-14s71.73-.11,93.84,0c21.41.11,82.85.01,92.55.01Z" fill="#f3d09e"/><path d="M356.43,347.52h-189.59c-.37,0-.67-.3-.67-.67s.3-.67.67-.67h189.59c.37,0,.67.3.67.67s-.3.67-.67.67Z" fill="#5b4037"/><path d="M356.43,333.66h-189.59c-.37,0-.67-.3-.67-.67s.3-.67.67-.67h189.59c.37,0,.67.3.67.67s-.3.67-.67.67Z" fill="#5b4037"/><path d="M356.43,319.81h-189.59c-.37,0-.67-.3-.67-.67s.3-.67.67-.67h189.59c.37,0,.67.3.67.67s-.3.67-.67.67Z" fill="#5b4037"/><path d="M356.43,305.95h-189.59c-.37,0-.67-.3-.67-.67s.3-.67.67-.67h189.59c.37,0,.67.3.67.67s-.3.67-.67.67Z" fill="#5b4037"/><path d="M356.43,292.09h-189.59c-.37,0-.67-.3-.67-.67s.3-.67.67-.67h189.59c.37,0,.67.3.67.67s-.3.67-.67.67Z" fill="#5b4037"/><path d="M356.43,278.24h-189.59c-.37,0-.67-.3-.67-.67s.3-.67.67-.67h189.59c.37,0,.67.3.67.67s-.3.67-.67.67Z" fill="#5b4037"/><path d="M120.45,104.42c-17.44,0-37.35-.25-42.43-.56-3.15-.2-5.45-1.28-6.84-3.22-2.68-3.73-1.42-10-.23-14.39,2.27-8.44,16.14-27.3,35.27-39.34,16.92-10.65,27.89-13.71,41.91-11.71,14.47,2.07,13.31,16.29,13.22,17.22,0,1.14,0,28.33.07,35.47.07,7.79-4.76,13.9-12.62,15.94-1.62.42-14.17.58-28.34.58ZM140.49,35.97c-10.46,0-20.07,3.58-33.56,12.08-18.84,11.86-32.47,30.32-34.68,38.55-1.11,4.13-2.32,9.99.03,13.25,1.16,1.62,3.07,2.48,5.83,2.66,10,.62,67.18.84,70.34.02,7.23-1.88,11.68-7.48,11.62-14.63-.07-7.27-.07-35.24-.07-35.52,0-.03,0-.05,0-.08.07-.56,1.5-13.83-12.07-15.77-2.56-.37-5.03-.56-7.44-.56Z" fill="#5b4037"/><path d="M126.2,93.18c-11.2,0-20.3-9.11-20.3-20.3s9.11-20.3,20.3-20.3,20.3,9.11,20.3,20.3-9.11,20.3-20.3,20.3ZM126.2,53.92c-10.45,0-18.96,8.5-18.96,18.96s8.5,18.96,18.96,18.96,18.96-8.5,18.96-18.96-8.5-18.96-18.96-18.96Z" fill="#5b4037"/><path d="M398.58,93.18c-11.2,0-20.3-9.11-20.3-20.3s9.11-20.3,20.3-20.3,20.3,9.11,20.3,20.3-9.11,20.3-20.3,20.3ZM398.58,53.92c-10.45,0-18.96,8.5-18.96,18.96s8.5,18.96,18.96,18.96,18.96-8.5,18.96-18.96-8.5-18.96-18.96-18.96Z" fill="#5b4037"/><path d="M404.33,104.42c-14.17,0-26.72-.16-28.34-.58-7.86-2.04-12.7-8.15-12.63-15.94.07-7.15.07-34.33.07-35.47-.09-.93-1.25-15.15,13.22-17.22,14.02-2,24.99,1.06,41.91,11.71,19.13,12.04,33,30.91,35.27,39.34,1.18,4.39,2.44,10.66-.23,14.39-1.39,1.94-3.69,3.02-6.84,3.22-5.08.32-24.99.56-42.43.56ZM384.29,35.97c-2.42,0-4.88.19-7.44.56-13.57,1.94-12.14,15.21-12.07,15.77,0,.03,0,.05,0,.08,0,.28,0,28.25-.07,35.52-.07,7.15,4.39,12.75,11.62,14.63,3.17.82,60.35.6,70.34-.02,2.76-.17,4.67-1.04,5.83-2.66,2.34-3.27,1.14-9.13.03-13.25-2.21-8.23-15.84-26.7-34.68-38.55-13.49-8.49-23.11-12.08-33.56-12.08Z" fill="#5b4037"/><path d="M82.33,369.23c-11.2,0-20.3-9.11-20.3-20.3s9.11-20.3,20.3-20.3,20.3,9.11,20.3,20.3-9.11,20.3-20.3,20.3ZM82.33,329.97c-10.45,0-18.96,8.5-18.96,18.96s8.5,18.96,18.96,18.96,18.96-8.5,18.96-18.96-8.5-18.96-18.96-18.96Z" fill="#5b4037"/><path d="M97.67,379.42h-30.66c-8.36,0-15.16-6.8-15.16-15.16v-30.66c0-8.36,6.8-15.16,15.16-15.16h30.66c8.36,0,15.16,6.8,15.16,15.16v30.66c0,8.36-6.8,15.16-15.16,15.16ZM67,319.78c-7.62,0-13.81,6.2-13.81,13.82v30.66c0,7.62,6.2,13.81,13.81,13.81h30.66c7.62,0,13.82-6.2,13.82-13.81v-30.66c0-7.62-6.2-13.82-13.82-13.82h-30.66Z" fill="#5b4037"/><path d="M440.33,369.23c-11.2,0-20.3-9.11-20.3-20.3s9.11-20.3,20.3-20.3,20.3,9.11,20.3,20.3-9.11,20.3-20.3,20.3ZM440.33,329.97c-10.45,0-18.96,8.5-18.96,18.96s8.5,18.96,18.96,18.96,18.96-8.5,18.96-18.96-8.5-18.96-18.96-18.96Z" fill="#5b4037"/><path d="M455.66,379.42h-30.66c-8.36,0-15.16-6.8-15.16-15.16v-30.66c0-8.36,6.8-15.16,15.16-15.16h30.66c8.36,0,15.16,6.8,15.16,15.16v30.66c0,8.36-6.8,15.16-15.16,15.16ZM425,319.78c-7.62,0-13.81,6.2-13.81,13.82v30.66c0,7.62,6.2,13.81,13.81,13.81h30.66c7.62,0,13.81-6.2,13.81-13.81v-30.66c0-7.62-6.2-13.82-13.81-13.82h-30.66Z" fill="#5b4037"/><path d="M333.37,104.73h-144.59c-.37,0-.67-.3-.67-.67s.3-.67.67-.67h144.59c.37,0,.67.3.67.67s-.3.67-.67.67Z" fill="#5b4037"/><path d="M259.51,235.14c-.37,0-.67-.3-.67-.67v-112.56c0-.37.3-.67.67-.67s.67.3.67.67v112.56c0,.37-.3.67-.67.67Z" fill="#5b4037"/><rect x="203.11" y="42.78" width="112.8" height="45.97" rx="11.21" ry="11.21" transform="translate(519.01 131.53) rotate(180)" fill="#f2f2f2"/><path d="M304.7,89.42h-90.38c-6.55,0-11.88-5.33-11.88-11.88v-23.55c0-6.55,5.33-11.88,11.88-11.88h90.38c6.55,0,11.88,5.33,11.88,11.88v23.55c0,6.55-5.33,11.88-11.88,11.88ZM214.32,43.45c-5.81,0-10.53,4.73-10.53,10.53v23.55c0,5.81,4.73,10.53,10.53,10.53h90.38c5.81,0,10.53-4.73,10.53-10.53v-23.55c0-5.81-4.73-10.53-10.53-10.53h-90.38Z" fill="#5b4037"/><path d="M230.55,56.53s6.07-.72,8.31-4.69h4.04v26.58h-5.56v-19.5s-3.25,2.74-6.79,2.53v-4.91Z" fill="#5b4037"/><path d="M257.57,51.28s-10.79.19-10.88,13c0,0-.77,14.13,10.88,14.64,0,0,8.76.94,11.07-10.04,2.31-10.98-4.24-18.3-11.07-17.6ZM263,67.21c-1.1,6.15-5.26,5.63-5.26,5.63-5.54-.28-5.17-8.2-5.17-8.2.05-7.18,5.17-7.29,5.17-7.29,3.25-.39,6.36,3.71,5.26,9.86Z" fill="#5b4037"/><path d="M276.75,58.78l-5.66-.79s1.57-7.18,10.66-6.73c9.09.45,10.21,9.09,5.44,12.63,0,0,6.84,3.48,3.53,9.71-1.39,2.61-3.95,4.39-6.85,4.97-4.33.87-11.18.87-13.46-6.93l5.36-1.28s2.64,5.95,8.12,3.04c4.26-2.26.24-7.62-4.72-6.76v-4.63s3.77,1.45,4.95-1.98c.74-2.13-.86-3.95-3.1-4.3-.41-.06-.49-.09-1.01-.04-2.69.22-3.27,3.09-3.27,3.09Z" fill="#5b4037"/><rect x="212.45" y="409.32" width="94.11" height="26.29" rx="5.45" ry="5.45" transform="translate(519.01 844.93) rotate(180)" fill="#f2f2f2"/><path d="M301.1,436.28h-83.2c-3.38,0-6.13-2.75-6.13-6.13v-15.39c0-3.38,2.75-6.13,6.13-6.13h83.2c3.38,0,6.13,2.75,6.13,6.13v15.39c0,3.38-2.75,6.13-6.13,6.13ZM217.91,409.99c-2.64,0-4.78,2.14-4.78,4.78v15.39c0,2.64,2.14,4.78,4.78,4.78h83.2c2.64,0,4.78-2.14,4.78-4.78v-15.39c0-2.64-2.14-4.78-4.78-4.78h-83.2Z" fill="#5b4037"/><path d="M298.3,418.51h-77.6c-.37,0-.67-.3-.67-.67s.3-.67.67-.67h77.6c.37,0,.67.3.67.67s-.3.67-.67.67Z" fill="#5b4037"/><path d="M317.83,362.12c-20.51,0-46.91-.11-71.57-.21-31.03-.13-60.34-.24-72.32-.13-8.26.06-13.86-1.48-17.14-4.76-3.58-3.59-3.53-8.51-3.49-12.1.01-1.05.02-2.03-.06-2.83-.39-3.87-.21-28.5-.08-46.48.07-9.29.12-16.64.07-17.87-.13-3.26.45-13.97,13.56-14.7,8.81-.49,54.64-.23,82.02-.07,4.6.03,8.65.05,11.86.07,16.81.08,57.93.04,80.03.02,5.94,0,10.4-.01,12.5-.01.51-.03,6.99-.3,11.25,3.8,2.45,2.35,3.64,5.66,3.56,9.83-.12,5.53,0,15.07.13,25.17.19,15.01.4,32.02-.13,39.62-.89,12.73-1.95,19.41-14.74,20.32-3.51.25-17.14.34-35.45.34ZM188.18,360.39c14.72,0,35.97.09,58.09.18,46.65.19,99.53.4,106.92-.13,11.72-.84,12.61-6.45,13.49-19.07.53-7.55.31-24.53.12-39.51-.13-10.11-.25-19.66-.13-25.21.08-3.78-.98-6.75-3.14-8.83-3.92-3.76-10.19-3.42-10.25-3.42-.01,0-.03,0-.04,0-2.09,0-6.56,0-12.52.01-22.1.02-63.23.06-80.04-.02-3.22-.02-7.26-.04-11.86-.07-27.37-.16-73.17-.43-81.94.07-11.56.65-12.44,9.52-12.29,13.3.05,1.26,0,8.62-.07,17.93-.13,17.95-.31,42.54.07,46.34.09.87.08,1.9.07,2.98-.04,3.54-.08,7.95,3.1,11.14,2.97,2.97,8.39,4.43,16.18,4.36,3.44-.03,8.32-.05,14.25-.05Z" fill="#5b4037"/><path d="M756.34,491.76s-8.18-16.18-10.29-23.17c0,0,10.97-10.74,23.34-9.16,0,0,5.53,22.03,5.79,25.52.26,3.5-13.14,9.54-18.85,6.81Z" fill="#f6cdb1"/><path d="M759.92,493.12c-1.44,0-2.78-.23-3.88-.75-.13-.06-.24-.17-.31-.3-.34-.66-8.23-16.31-10.33-23.28-.07-.24,0-.5.17-.68.46-.45,11.36-10.95,23.9-9.35.28.04.5.24.57.5.23.9,5.55,22.12,5.81,25.64.12,1.55-1.57,3.05-3.01,4.03-3.04,2.08-8.51,4.19-12.93,4.19ZM756.83,491.25c3.92,1.67,11.46-.84,15.26-3.43,1.85-1.26,2.46-2.28,2.42-2.81-.23-3.13-4.87-21.8-5.66-24.96-10.63-1.09-20.24,7.12-22.03,8.75,2.11,6.6,9.07,20.56,10.01,22.45Z" fill="#5b4037"/><path d="M772.66,484.06c2.27-.8,4.58,1.27,5.23,3.72,1.83,6.88,3.42,23.04,3.42,23.04,0,0-10.23.51-18.6.03l-.53-3.44s-3.4,3.18-12.42,3.72c-9.01.54-26.45-.22-29.52-.12,0,0-1.06-9.13,4.95-13.6,6.95-5.17,12.24-4.63,14.79-4.96,5.06-.66,9.87-.94,9.77-4.31,0,0-1.29-8.95,10.67-2.02,4.56,2.64,8.53-.77,12.25-2.07Z" fill="#a87665"/><path d="M741.21,512c-4.9,0-10.19-.12-14.23-.22-3.2-.07-5.73-.13-6.71-.1-.36.03-.65-.25-.69-.6-.04-.39-1.03-9.57,5.22-14.22,6.01-4.47,10.85-4.79,13.74-4.97.52-.03.97-.06,1.36-.11l1.27-.16c4.97-.62,7.98-1.16,7.92-3.46-.01-.06-.44-3.23,1.7-4.68,1.97-1.33,5.32-.63,9.97,2.06,3.17,1.84,6.09.44,8.92-.91.91-.44,1.85-.89,2.77-1.21h0c1.02-.36,2.11-.26,3.14.28,1.38.73,2.52,2.23,2.97,3.9,1.83,6.86,3.37,22.49,3.44,23.15.02.18-.04.37-.16.51-.12.14-.29.22-.48.23-.1,0-10.36.5-18.67.04-.32-.02-.58-.26-.63-.57l-.36-2.35c-1.59,1.02-5.27,2.8-11.88,3.2-2.41.14-5.42.2-8.6.2ZM721,510.33c1.27,0,3.42.05,6.01.11,6.63.15,16.66.39,22.72.02,8.6-.51,11.96-3.51,12-3.54.18-.17.45-.22.68-.14.23.08.41.29.44.53l.45,2.9c6.86.35,14.88.07,17.28-.03-.33-3.19-1.75-16.29-3.33-22.23-.35-1.32-1.23-2.5-2.3-3.06-.48-.25-1.23-.5-2.06-.2-.85.3-1.72.71-2.64,1.15-3,1.43-6.39,3.06-10.17.86-5.18-3.01-7.5-2.81-8.54-2.11-1.45.97-1.12,3.43-1.12,3.45.11,3.77-4.36,4.32-9.09,4.91l-1.26.16c-.41.05-.9.09-1.44.12-2.74.18-7.33.48-13.03,4.71-4.75,3.53-4.82,10.32-4.72,12.38h.13Z" fill="#5b4037"/><path d="M743.4,496.5c-.26,0-.51-.15-.62-.4-.08-.18-1.98-4.38-6.4-2.87-.35.12-.73-.07-.85-.42-.12-.35.07-.73.42-.85,4.48-1.53,7.24,1.69,8.07,3.61.15.34,0,.74-.35.88-.09.04-.18.06-.27.06Z" fill="#f2f2f2"/><path d="M749.6,495.87c-.26,0-.51-.15-.62-.4-.08-.18-1.99-4.38-6.4-2.87-.35.12-.74-.07-.85-.42-.12-.35.07-.73.42-.85,4.48-1.53,7.24,1.69,8.07,3.61.15.34,0,.74-.35.88-.09.04-.18.06-.27.06Z" fill="#f2f2f2"/><path d="M685.73,494.59s-5.29-17.34-6.17-24.59c0,0,12.65-8.71,24.57-5.03,0,0,1.68,22.65,1.34,26.14s-14.58,7.15-19.73,3.48Z" fill="#f6cdb1"/><path d="M692.03,496.78c-2.61,0-5.04-.47-6.69-1.64-.12-.09-.21-.21-.25-.35-.22-.71-5.31-17.48-6.2-24.7-.03-.25.08-.49.29-.64.53-.36,13.06-8.85,25.14-5.12.26.08.45.32.47.59.07.93,1.68,22.75,1.34,26.25-.15,1.55-2.07,2.73-3.66,3.45-2.62,1.19-6.71,2.15-10.44,2.15ZM686.31,494.17c3.57,2.31,11.44,1.14,15.61-.76,2.04-.93,2.82-1.83,2.87-2.36.3-3.12-1.07-22.31-1.31-25.56-10.27-2.89-21.16,3.55-23.21,4.85.95,6.87,5.42,21.81,6.03,23.83Z" fill="#5b4037"/><path d="M702.81,484.06c2.27-.8,4.58,1.27,5.23,3.72,1.83,6.88,3.42,23.04,3.42,23.04,0,0-10.23.51-18.6.03l-.53-3.44s-3.4,3.18-12.42,3.72-26.45-.22-29.52-.12c0,0-1.06-9.13,4.95-13.6,6.95-5.17,12.24-4.63,14.79-4.96,5.06-.66,9.87-.94,9.77-4.31,0,0-1.29-8.95,10.67-2.02,4.56,2.64,8.53-.77,12.25-2.07Z" fill="#a87665"/><path d="M671.36,512c-4.9,0-10.19-.12-14.23-.22-3.2-.07-5.73-.13-6.71-.1-.37.03-.65-.25-.69-.6-.04-.39-1.03-9.57,5.22-14.22,6.01-4.47,10.85-4.79,13.74-4.97.52-.03.97-.06,1.36-.11l1.27-.16c4.97-.62,7.98-1.16,7.92-3.46-.01-.06-.44-3.23,1.7-4.68,1.97-1.33,5.32-.63,9.97,2.06,3.17,1.84,6.09.44,8.91-.91.91-.44,1.85-.89,2.77-1.21h0c1.02-.36,2.11-.26,3.14.28,1.38.73,2.52,2.23,2.97,3.9,1.83,6.86,3.37,22.49,3.44,23.15.02.18-.04.37-.16.51-.12.14-.29.22-.48.23-.1,0-10.37.5-18.67.04-.32-.02-.58-.26-.63-.57l-.36-2.35c-1.59,1.02-5.27,2.8-11.88,3.2-2.41.14-5.42.2-8.6.2ZM651.15,510.33c1.27,0,3.42.05,6.01.11,6.63.15,16.66.38,22.72.02,8.6-.51,11.96-3.51,12-3.54.18-.17.45-.22.68-.14.23.08.41.29.44.53l.44,2.9c6.86.35,14.88.07,17.28-.03-.33-3.19-1.75-16.29-3.33-22.23-.35-1.32-1.23-2.5-2.3-3.06-.48-.25-1.23-.49-2.06-.2-.85.3-1.72.71-2.64,1.15-2.99,1.43-6.39,3.06-10.17.86-5.19-3.01-7.51-2.81-8.55-2.11-1.43.97-1.12,3.43-1.12,3.45.11,3.77-4.36,4.32-9.09,4.91l-1.26.16c-.41.05-.9.09-1.44.12-2.74.18-7.33.48-13.03,4.71-4.75,3.53-4.82,10.32-4.72,12.38h.13Z" fill="#5b4037"/><path d="M673.55,496.5c-.26,0-.51-.15-.62-.4-.08-.18-1.98-4.38-6.4-2.87-.35.12-.73-.07-.85-.42-.12-.35.07-.73.42-.85,4.48-1.53,7.24,1.69,8.07,3.61.15.34,0,.74-.35.88-.09.04-.18.06-.27.06Z" fill="#f2f2f2"/><path d="M679.75,495.87c-.26,0-.51-.15-.62-.4-.08-.18-1.99-4.38-6.4-2.87-.35.12-.73-.07-.85-.42-.12-.35.07-.73.42-.85,4.48-1.53,7.24,1.69,8.07,3.61.15.34,0,.74-.35.88-.09.04-.18.06-.27.06Z" fill="#f2f2f2"/><path d="M749.86,327.47s9.44,23.21,2.35,40.16c-.67,1.59.33,16.05.34,24.99.02,12.09-2.49,23.94-11.08,22.93-18.59-2.18-23.8-11.94-26.49-20.73-2.7-8.79-12.64-44.74-5.97-65.45,6.67-20.71,40.84-1.9,40.84-1.9Z" fill="#f3d09e"/><path d="M742.48,416.28c-.35,0-.71-.02-1.08-.06-18.79-2.2-24.22-11.96-27.06-21.2-.99-3.24-4.4-14.86-6.52-28.35-2.51-15.97-2.32-28.59.55-37.5,1.41-4.37,4.11-7.38,8.04-8.93,12.46-4.94,32.9,6.18,33.77,6.65.14.07.24.19.3.34.02.06,2.4,5.96,3.87,13.85,1.36,7.32,2.2,17.91-1.52,26.82-.35.83-.12,7.1.08,12.63.15,4.2.31,8.54.31,12.1,0,7.61-.96,17.55-5.64,21.72-1.45,1.29-3.17,1.95-5.11,1.95ZM723.74,320.32c-2.43,0-4.76.34-6.82,1.16-3.54,1.4-5.98,4.13-7.26,8.1-6.96,21.61,4.63,60.66,5.97,65.04,2.71,8.83,7.91,18.15,25.93,20.26,2.02.24,3.7-.27,5.13-1.55,3.36-2.99,5.2-10.35,5.19-20.71,0-3.53-.16-7.86-.31-12.05-.28-7.73-.42-12.15.02-13.2,6.53-15.62-1.34-37-2.27-39.42-1.81-.96-14.78-7.63-25.59-7.63Z" fill="#5b4037"/><path d="M686.81,310.41s-23.79,77.23-17.72,91.03c6.06,13.8,23.92,22.13,31.06,5.43,7.14-16.7,19.11-58.67,19.11-58.67l-.47-28.01s-17.55-10.38-31.98-9.77Z" fill="#f3d09e"/><path d="M712.47,385.56s6.46,30.86,13.65,47.48c7.27,16.81,16.69,38.22,16.69,38.22,0,0,19.41.58,31.42-9.71,0,0-7.91-23.96-13.4-38.83-5.48-14.86-7.9-28.81-7.9-28.81,0,0-29.45-23.3-40.46-8.36Z" fill="#f3d09e"/><path d="M743.5,471.94c-.39,0-.64,0-.72,0-.26,0-.49-.16-.6-.4-.09-.21-9.5-21.61-16.69-38.23-7.13-16.49-13.62-47.3-13.69-47.61-.04-.19,0-.38.12-.54,2.14-2.91,5.1-4.63,8.8-5.13,13.3-1.78,31.84,12.74,32.62,13.35.13.1.22.25.25.41.02.14,2.47,14.06,7.87,28.69,5.43,14.71,13.32,38.61,13.4,38.85.09.26,0,.54-.2.72-10.9,9.33-27.47,9.88-31.16,9.88ZM743.25,470.59h.03c2.93,0,19.49-.41,30.17-9.26-1.1-3.31-8.23-24.78-13.25-38.37-5.04-13.65-7.52-26.68-7.88-28.67-2.05-1.57-19.39-14.54-31.41-12.92-3.22.43-5.81,1.9-7.71,4.35.69,3.22,6.84,31.56,13.54,47.05,6.64,15.36,15.19,34.81,16.51,37.82Z" fill="#5b4037"/><path d="M699.39,399.07s2.67,18.04,4.86,36.45c2.06,17.24,5.32,34.42,4.69,34.02,0,0-17.62,6.2-33.4,1.32,0,0-7.76-46.97-9.64-65.07-1.38-13.24,6.46-40.77,6.46-40.77,0,0,22.74,18.77,27.03,34.05Z" fill="#f3d09e"/><path d="M688.85,473.39c-4.37,0-9.02-.5-13.51-1.89-.24-.08-.42-.28-.47-.53-.08-.47-7.78-47.19-9.65-65.11-1.38-13.21,13.01-67.79,13.63-70.1.1-.36.47-.57.82-.48.36.1.57.46.48.82-.15.56-14.94,56.65-13.59,69.62,1.77,16.98,8.8,59.93,9.57,64.62,14.02,4.16,29.6-.47,32.2-1.3-.07-1.2-.66-5.01-1.34-9.35-1-6.44-2.37-15.25-3.42-24.08-2.17-18.19-4.83-36.25-4.86-36.43-.05-.37.2-.71.57-.76.38-.05.71.2.76.57.03.18,2.69,18.26,4.86,36.47,1.05,8.81,2.42,17.61,3.42,24.04,1.59,10.25,1.57,10.26,1.01,10.63-.08.05-.17.09-.27.1-.99.33-9.79,3.18-20.22,3.18Z" fill="#5b4037"/><path d="M695.79,236.48s-16.31,4.36-21.84,18.06c-3.99,9.87,9.39,33.96,9.39,37.14,0,5.47,1.06,25.51-5.5,43.39,0,0,8.19,5.36,31.18,6.21,16.8.62,40.34-8.61,40.34-8.61l-2.52-46.2c13.42-6.34,16.07-16.64,14.97-23-1.25-7.26-7.26-14.31-10.82-17.36-6.71-5.74-15.11-8.04-15.11-8.04-16.49-4.22-40.08-1.58-40.08-1.58Z" fill="#f2f2f2"/><path d="M695.79,236.48s-.66,15.32,15.5,15.34c18.44.03,24.88-13.7,24.88-13.7,0,0-10.32-2.76-18.57-3.81,0,0-11.88-.27-21.82,2.17Z" fill="#f6cdb1"/><path d="M711.35,252.49h-.05c-5.2,0-9.27-1.51-12.09-4.46-4.33-4.53-4.1-10.8-4.09-11.06.02-.37.36-.66.7-.64.37.02.66.33.64.7,0,.06-.21,5.97,3.73,10.08,2.55,2.67,6.29,4.02,11.1,4.03h.05c9.25,0,15.27-3.53,18.68-6.5,3.72-3.23,5.26-6.51,5.27-6.54.16-.34.55-.49.89-.33.34.16.49.55.33.89-.07.14-1.65,3.54-5.56,6.95-3.59,3.14-9.91,6.87-19.61,6.87Z" fill="#5b4037"/><path d="M691.25,246.85c2.48,1.02,6.47,11.85,7.5,14.33,1.58,3.8-4.99,32.03-6.39,36.92-2.39,8.39-6.92,16.45-12.94,16.35-17.53-.27-12.66-23.12-6.41-57.09,1.91-10.37,12.2-13,18.24-10.51Z" fill="#f2f2f2"/><path d="M710.64,341.97c-.55,0-1.1,0-1.65-.03-22.92-.84-31.19-6.09-31.53-6.32-.26-.17-.37-.5-.26-.8,5.86-15.99,5.6-33.59,5.48-41.1-.01-.82-.02-1.51-.02-2.06-.05-.57-1.27-15.28-.18-23.57.05-.37.4-.63.75-.58.37.05.63.39.58.75-1.06,8.15.18,23.19.19,23.34,0,.6.01,1.28.03,2.09.11,7.51.38,24.97-5.37,41.05,2.01,1.07,10.83,5.12,30.38,5.84,15.17.55,36.27-7.13,39.62-8.39l-2.5-45.71c-.01-.27.14-.53.38-.65,7.86-3.71,16.4-11.77,14.6-22.27-1.26-7.32-7.48-14.3-10.6-16.96-6.52-5.58-14.77-7.88-14.85-7.91-11.05-2.83-25.47-2.52-33.09-2.09-7.3.42-14.02,2.88-19.43,7.12-3.67,2.88-6.41,6.23-8.14,9.96-.29.62-.52,1.34-.7,2.19-.99,4.6-4.34,20.65-6.62,36.39,1.46.26,5.02,1.16,8.91,3.97.3.22.37.64.15.94-.22.3-.64.37-.94.15-4.67-3.38-8.9-3.82-8.94-3.83-.18-.02-.35-.11-.47-.25s-.16-.33-.14-.51c2.28-15.99,5.73-32.47,6.73-37.15.2-.95.46-1.76.8-2.47,1.82-3.93,4.69-7.45,8.53-10.46,5.63-4.41,12.61-6.97,20.18-7.4,7.69-.44,22.27-.74,33.51,2.13.36.1,8.63,2.41,15.38,8.19,3.24,2.78,9.73,10.06,11.05,17.76,1.9,11.06-6.77,19.52-14.94,23.52l2.5,45.75c.02.29-.16.56-.43.66-.23.09-22.36,8.69-38.96,8.69Z" fill="#5b4037"/><path d="M702.36,223.69s-.47,12.77-.7,16.37c0,0,3.45,4.08,14.83,4.34,11.38.27,11.65-3.98,11.65-3.98,0,0-.58-10.36,1-16.59l-26.79-.14Z" fill="#f6cdb1"/><path d="M747.66,249.48c2.8-.71,5.13-.57,7.62.9,3.82,2.27,16.32,30.93,18.27,36.06,3.33,8.8,4.4,18.4-.67,22.48-15.66,12.62-24.42-11.36-35.83-40.76-4.12-10.6,3.78-16.95,10.61-18.69Z" fill="#f2f2f2"/><path d="M764.77,313.04c-.83,0-1.65-.11-2.47-.33-9.71-2.6-16.8-20.88-25.01-42.06l-.87-2.25c-.13-.35.04-.74.38-.87.34-.13.74.04.87.38l.87,2.25c8.08,20.83,15.06,38.83,24.1,41.25,3.07.82,6.27-.17,9.81-3.02,4.17-3.36,4.34-11.48.46-21.72-1.57-4.15-11.88-28.67-19.71-37.48-.25-.28-.22-.7.06-.95.28-.25.7-.22.95.06,7.96,8.96,18.38,33.72,19.97,37.9,4.1,10.81,3.77,19.5-.87,23.25-2.99,2.41-5.8,3.6-8.53,3.6Z" fill="#5b4037"/><path d="M737.4,351.72s6.18,1.62,6.07,7.79l-.25,3.86-4.26-.2.11-4.18s-.15-2.06-2.14-2.77c0,0,.24-1.76.47-4.5Z" fill="#a87665"/><path d="M739.88,206.85c-1.81-.37-3.2-.03-5.01.49l-1.74,10.14s6.87,3.33,9.55-2.02c2.68-5.35-.98-8.24-2.8-8.61Z" fill="#f6cdb1"/><path d="M737.51,219.18c-1.78,0-3.52-.54-4.68-1.1-.27-.13-.42-.42-.37-.72l1.74-10.14c.04-.25.23-.46.48-.53,1.9-.55,3.39-.9,5.33-.5h0c1.18.24,2.83,1.3,3.69,3.07.64,1.31,1.08,3.5-.43,6.51-1.3,2.6-3.56,3.42-5.76,3.42ZM733.88,217.07c1.5.6,6.19,2.09,8.19-1.91,1-1.99,1.14-3.83.42-5.31-.7-1.45-2.03-2.19-2.75-2.34-1.52-.31-2.73-.07-4.29.36l-1.57,9.2Z" fill="#5b4037"/><path d="M736.81,212.36c-.1,0-.21-.02-.31-.07-.33-.17-.46-.57-.29-.9.45-.89,1.91-2.39,4.2-1.68.36.11.56.49.45.84-.11.35-.48.56-.84.45-1.75-.54-2.52.85-2.61,1.01-.12.23-.36.36-.6.36Z" fill="#5b4037"/><path d="M698.97,203c-1.63-.96-2.88-1.63-4.73-1.73-1.85-.1-6.12,1.79-4.87,7.64,1.25,5.85,8.74,4.34,8.74,4.34l.86-10.25Z" fill="#f6cdb1"/><path d="M696.07,214.12c-2.88,0-6.49-1.06-7.35-5.07-.7-3.29.27-5.3,1.21-6.4,1.28-1.5,3.16-2.11,4.34-2.04,1.99.1,3.34.82,5.04,1.82.22.13.35.38.33.64l-.86,10.25c-.02.3-.24.54-.54.6-.62.12-1.37.21-2.18.21ZM694.11,201.94c-.76,0-2.15.41-3.15,1.58-1.07,1.25-1.39,3.07-.92,5.25.94,4.39,5.85,4.11,7.45,3.9l.78-9.3c-1.4-.81-2.51-1.34-4.06-1.43-.03,0-.07,0-.1,0Z" fill="#5b4037"/><path d="M695.79,206.97c-.29,0-.55-.18-.64-.47-.05-.16-.56-1.52-2.42-1.45-.35.03-.69-.27-.7-.64-.02-.37.27-.69.64-.7,2.35-.11,3.49,1.52,3.76,2.39.11.36-.09.73-.45.84-.07.02-.13.03-.2.03Z" fill="#5b4037"/><path d="M718.98,179.04h0c11.54,1.28,19.85,11.66,18.58,23.2l-1.37,12.42c-2.57,16.37-14.87,19.5-23.2,18.58h0c-6.46-.71-19.32-6.8-17.52-23.08l1.37-12.42c1.28-11.54,10.6-19.97,22.13-18.7Z" fill="#f6cdb1"/><ellipse cx="706.17" cy="204.25" rx="1.58" ry="1.45" transform="translate(382.92 864.48) rotate(-80.05)" fill="#5b4037"/><ellipse cx="722.42" cy="206.63" rx="1.58" ry="1.45" transform="translate(394.02 882.45) rotate(-80.05)" fill="#5b4037"/><path d="M696.08,200.68s-7.05,24.3,10.85,32.74c0,0,5.56,3.53,13.62,1.24,6.24-1.78,11.25-6.41,13.77-12.39,1.3-3.08,3.44-12.37,2.93-16.6l-2.28-1.07s.4,13.62-10.35,11.08c-6.33-1.49-10.76-7.42-20.94-1.56,0,0-7.79,6.23-5.39-14.79l-2.22,1.36Z" fill="#5b4037"/><path d="M717.63,215.33s3.03,1.49-.36,3.3c-4.37,2.32-8.99-.63-9.7-1.79-.54-.88-.67-2.32.98-2.63.63-.12,1.28-.01,1.86.27.42.2.96.48,1.43.76,1.2.71,3.05.55,4.08.08,1.03-.47,1.71.02,1.71.02Z" fill="#f6cdb1"/><path d="M695.77,201.96s2.96.43,6.16-11.5c1.52-5.65,6.23-2.21,9.51-.44,2.82,1.52,7.33.53,12.56-1.02,4.02-1.19,10.39.15,10.92,6.57.5,6.11-1.68,13.61,2.18,11.24.59-.36,3.99.54,3.99.54,1.2-4.37,2-11.97,1.58-16.83-.82-9.59-10.9-16.28-21.26-17.55-4.8-.58-12.83.22-17.45,3.53-7.54,5.41-8.17,14.96-8.18,25.46Z" fill="#5b4037"/><path d="M718.66,192.52c-5.78,0-8.83-4.22-8.87-4.27-.21-.3-.14-.72.16-.94.3-.21.72-.14.94.16.19.26,4.71,6.41,13.47,2.31.34-.16.74-.01.9.32.16.34.01.74-.32.89-2.35,1.1-4.45,1.52-6.27,1.52Z" fill="#5b4037"/><path d="M713.64,218.4c-2.67,0-4.58-1.53-4.69-1.62-.29-.24-.33-.66-.09-.95.24-.29.66-.33.95-.09h0c.12.1,3.03,2.41,6.49.66.33-.17.74-.03.9.3.17.33.03.74-.3.9-1.16.58-2.26.8-3.26.8Z" fill="#5b4037"/><path d="M715.36,209.55c-.32,0-.6-.22-.66-.54,0-.02-.19-.89-.79-.98-.62-.08-.84.57-.87.71-.1.36-.47.57-.82.48-.36-.09-.57-.45-.48-.81.17-.68.89-1.92,2.37-1.71,1.24.18,1.8,1.38,1.92,2.06.07.37-.17.72-.54.79-.04,0-.08.01-.13.01Z" fill="#5b4037"/><path d="M693.45,197.18c-.32,0-.6-.23-.66-.55-.02-.09-1.66-9.4,6.8-13.63.34-.17.74-.03.9.3.17.33.03.74-.3.9-7.54,3.77-6.14,11.84-6.08,12.18.07.37-.17.72-.54.78-.04,0-.08.01-.12.01Z" fill="#5b4037"/><path d="M743.81,203.69s-.05,0-.08,0c-.37-.04-.63-.38-.59-.75,1.28-10.68-2.69-15.45-2.73-15.49-.24-.28-.21-.71.07-.95.28-.24.7-.21.95.07.18.21,4.4,5.2,3.05,16.53-.04.34-.33.59-.67.59Z" fill="#5b4037"/><path d="M740.07,193.58s-.02,0-.04,0c-.37-.02-.66-.34-.64-.71.45-8.86-6.58-11.69-6.88-11.8-.35-.13-.52-.52-.39-.87.13-.35.52-.52.87-.39.08.03,8.25,3.27,7.74,13.13-.02.36-.32.64-.67.64Z" fill="#f2f2f2"/><path d="M755.12,295.38s6.35-10.03,16.31-3.25c3.24,2.2,6.11,11.7,2.67,17.24-10.42,16.79-29.03,34.29-38.31,38.45-5.14,2.3-14.41,1.83-10.7-10.6,3.33-11.19,24.81-34.66,30.03-41.84Z" fill="#f2f2f2"/><path d="M730.84,349.57c-1.89,0-3.73-.48-5.09-1.67-1.64-1.44-3.2-4.49-1.3-10.87,2.43-8.15,14.1-22.34,22.62-32.71,1.24-1.5,2.4-2.91,3.44-4.2,2.13-2.62,6.5-6.24,9.61-7.46.35-.13.74.04.87.38.14.35-.04.74-.38.87-2.6,1.01-6.83,4.31-9.06,7.05-1.04,1.29-2.21,2.7-3.44,4.21-8.45,10.27-20.02,24.34-22.37,32.24-1.34,4.51-1.03,7.78.9,9.47,2.23,1.96,6.17,1.54,8.88.32,7.82-3.5,30.27-25.88,37.92-39.04,1.47-2.53,1.87-4.65,2.16-6.59.05-.37.39-.62.76-.57.37.05.62.4.57.76-.31,2.08-.74,4.34-2.33,7.07-7.98,13.71-30.45,35.97-38.54,39.6-1.52.68-3.4,1.13-5.23,1.13Z" fill="#5b4037"/><path d="M710.11,377.08c-.3,0-.57-.2-.65-.5-.03-.12-3.34-12.33-4.63-16.46-.98-.63-4.97-3.29-6.99-6.1-.22-.3-.15-.72.15-.94.3-.22.72-.15.94.15,2.11,2.93,6.78,5.85,6.82,5.87.14.08.24.22.29.37,1.24,3.91,4.68,16.62,4.72,16.75.1.36-.11.73-.47.83-.06.02-.12.02-.18.02Z" fill="#5b4037"/><path d="M717.93,350.27s-6.37.55-7.3,6.65l-.4,3.08,4.37.32.46-3.17s.5-2,2.58-2.36c0,0,.06-1.78.3-4.51Z" fill="#a87665"/><path d="M714.59,360.99s-.03,0-.05,0l-4.37-.32c-.18-.01-.36-.1-.47-.25-.12-.14-.17-.33-.15-.51l.4-3.08c1.01-6.57,7.84-7.23,7.91-7.23.2-.02.39.05.53.2.14.14.21.34.19.53-.24,2.68-.3,4.46-.3,4.48-.01.32-.24.59-.56.64-1.6.28-2.03,1.8-2.04,1.87l-.45,3.1c-.05.33-.33.58-.67.58ZM710.98,359.38l3.03.22.37-2.55c.04-.15.56-2.16,2.6-2.8.03-.61.09-1.72.21-3.18-1.64.36-5.23,1.64-5.89,5.95l-.31,2.36Z" fill="#5b4037"/><path d="M743.05,364.18s-.03,0-.04,0l-4.26-.25c-.37-.02-.65-.33-.63-.7l.16-4.18h0s-.14-1.57-1.67-2.13c-.3-.11-.48-.42-.43-.73,0-.02.26-1.78.52-4.46.02-.2.12-.38.29-.49.16-.11.37-.15.56-.1.07.02,6.67,1.91,6.47,8.53l-.3,3.89c-.03.35-.32.62-.67.62ZM739.49,362.62l2.94.17.24-3.2c.13-4.33-3.18-6.24-4.72-6.89-.15,1.45-.29,2.56-.37,3.16,1.89,1,2.04,3.06,2.04,3.16l-.13,3.59Z" fill="#5b4037"/><path d="M729.55,328.83c-.38.14-6.1,4.56-9.69,8.34-2.8,2.95-5.93,6.79-6.21,9.37-.36,3.33-.39,4.86,3.95,4.25l19.66,1.73s1.31-3.91,3.29-10.48c3.49-11.55-9.32-13.84-11-13.2Z" fill="#f6cdb1"/><path d="M717.62,353.92c.03-.88.14-1.76.41-2.6.39-1.21,1.16-2.73,2.6-2.74,2.92-.01,2.3,2.68,2.3,2.68,0,0,1.2-2.36,3.21-2.19,1.93.16,2.22,2.36,2.22,2.36,0,0,.69-2.47,2.59-2.41,1.9.07,1.95,1.8,1.95,1.8,0,0,.7-1.49,2.52-1.28s2.53,3.39,1.43,7.33c-.83,2.98-4.8,1.94-5.55,1.7,0,0-2.35.78-4.08-.24,0,0-2.57,1.5-5.08-.29,0,0-4.72,2.91-4.52-4.11Z" fill="#f6cdb1"/><path d="M727.39,358.37s-.1,0-.15-.02c-.36-.08-.59-.44-.5-.81.81-3.53.74-7.12.74-7.16,0-.37.29-.68.66-.69.39-.03.68.29.69.66,0,.15.08,3.8-.77,7.49-.07.31-.35.52-.65.52Z" fill="#5b4037"/><path d="M732.14,358.84c-.06,0-.11,0-.17-.02-.36-.09-.58-.46-.48-.82.77-2.93.85-7.57.85-7.62,0-.37.31-.67.68-.66.37,0,.67.31.66.68,0,.2-.08,4.85-.89,7.94-.08.3-.35.5-.65.5Z" fill="#5b4037"/><path d="M717.6,351.45h-.01c-.37,0-.67-.32-.66-.69,0-.1.07-2.54,1.34-6.47.12-.35.49-.55.85-.43.35.11.55.49.43.85-1.21,3.72-1.28,6.06-1.28,6.09,0,.37-.31.66-.67.66Z" fill="#5b4037"/><path d="M722.23,357.92c-.06,0-.12,0-.18-.03-.36-.1-.57-.47-.46-.83.64-2.28,1.2-6.98,1.2-7.03.04-.37.39-.63.75-.59.37.04.63.38.59.75-.02.2-.57,4.86-1.24,7.24-.08.3-.35.49-.65.49Z" fill="#5b4037"/><rect x="687.79" y="360.82" width="75.76" height="50.42" rx="6.5" ry="6.5" transform="translate(1414.32 834.77) rotate(-174.92)" fill="#a87665"/><path d="M755.27,414.61c-.21,0-.43,0-.64-.03l-62.51-5.55c-3.94-.35-6.86-3.84-6.51-7.78l3.31-37.26c.17-1.91,1.07-3.64,2.54-4.87,1.47-1.23,3.34-1.81,5.24-1.64h0l62.51,5.55c3.94.35,6.86,3.84,6.51,7.78l-3.31,37.26c-.33,3.73-3.47,6.54-7.14,6.54ZM696.06,358.79c-1.36,0-2.67.47-3.73,1.36-1.19,1-1.93,2.4-2.07,3.96l-3.31,37.26c-.28,3.2,2.09,6.04,5.29,6.32l62.51,5.55c3.21.29,6.04-2.09,6.33-5.29l3.31-37.26c.28-3.2-2.09-6.04-5.29-6.32l-62.51-5.55c-.18-.02-.35-.02-.53-.02Z" fill="#5b4037"/><path d="M751.68,387.8c-.19,0-.38,0-.57-.02l-49.99-4.34c-2.94-.26-5.32-2.37-5.92-5.26l-3.42-16.47c-.08-.36.16-.72.52-.8.37-.07.72.16.8.52l3.42,16.47c.48,2.3,2.38,3.99,4.72,4.19l49.99,4.34c2.36.2,4.58-1.2,5.41-3.42l5.5-14.71c.13-.35.52-.52.87-.39.35.13.53.52.39.87l-5.5,14.71c-.97,2.6-3.48,4.31-6.22,4.31Z" fill="#5b4037"/><circle cx="726.04" cy="384.92" r="3.07" fill="#5b4037"/><path d="M733.65,359.61c-1.01,0-1.93-.22-2.34-.34-.63.17-2.49.56-4.09-.19-.82.37-2.94,1.06-5.11-.27-.69.33-2.15.85-3.39.13-1.24-.72-1.83-2.41-1.76-5.04,0-.12,0-.56,0-1.1,0-.74-.01-1.29-.01-1.7-.43.09-.81.18-1.14.27-.92.24-1.65.43-2.24-.05-.7-.57-.76-1.76-.58-4.83.13-2.23,2.16-5.35,6.4-9.79,3.47-3.64,9.33-8.27,9.94-8.5h0c1.28-.48,6.36.28,9.59,3.3,1.97,1.84,3.97,5.19,2.3,10.73-1.63,5.42-2.81,9.02-3.2,10.19.14,1.36-.04,2.96-.5,4.63-.26.94-.8,1.63-1.61,2.07-.69.37-1.49.49-2.24.49ZM731.31,357.89c.07,0,.14.01.21.03.1.03,2.35.75,3.74,0,.48-.26.79-.66.95-1.24.43-1.54.59-3.06.45-4.27-.01-.1,0-.2.03-.29.33-.99,1.53-4.65,3.23-10.29,1.18-3.91.53-7.06-1.93-9.36-2.88-2.69-7.36-3.28-8.17-3.03-.67.4-6.1,4.64-9.47,8.18-3.89,4.09-5.92,7.09-6.03,8.94-.05.92-.2,3.38.09,3.71.11.02.62-.11,1.04-.22.55-.14,1.23-.32,2.08-.43.21-.03.41.04.56.19.15.15.22.35.2.56-.02.2,0,1.64,0,2.4,0,.56.01,1.03,0,1.15-.06,2.06.32,3.39,1.09,3.83.95.55,2.39-.31,2.41-.32.23-.14.52-.13.75.03,2.11,1.51,4.26.31,4.35.26.21-.12.47-.12.68,0,1.44.85,3.51.19,3.53.18.07-.02.14-.03.21-.03Z" fill="#5b4037"/><path d="M532.78,315.37c-.28,0-.54-.17-.64-.45-.12-.35.06-.73.41-.86.06-.02,6.33-2.28,8.13-8.46.1-.36.47-.56.83-.46.36.1.56.48.46.83-2,6.86-8.7,9.26-8.98,9.36-.07.03-.15.04-.22.04Z" fill="#5b4037"/><path d="M575.71,217.41c-.81,0-1.54-.09-2.08-.18-.37-.06-.61-.41-.55-.77.06-.37.41-.62.77-.55,2.23.37,6.14.43,7.34-3.35.69-2.17.54-4.04-.43-5.42-.94-1.35-2.4-1.89-3.15-1.92-1.19-.06-3.26,1.04-4.26,1.56-.33.17-.74.05-.91-.28s-.05-.74.28-.91c1.63-.86,3.5-1.77,4.94-1.72,1.22.05,3.05.86,4.2,2.49.85,1.21,1.64,3.34.61,6.6-1.17,3.69-4.34,4.45-6.77,4.45Z" fill="#5b4037"/><path d="M728.26,240.37c-.34,0-.64-.26-.67-.61-.55-6-.02-10.24,0-10.42.05-.37.39-.63.75-.58.37.05.63.38.58.75,0,.04-.53,4.28,0,10.12.03.37-.24.7-.61.73-.02,0-.04,0-.06,0Z" fill="#5b4037"/><path d="M702.23,240.13s-.04,0-.06,0c-.37-.03-.64-.36-.61-.73.54-5.85,0-10.86,0-10.91-.04-.37.23-.7.6-.74.37-.03.7.23.74.6.02.21.55,5.19,0,11.18-.03.35-.33.61-.67.61Z" fill="#5b4037"/><path d="M648.22,361.04c-.64,0-1.21-.35-1.58-.66-.84.45-1.49.31-1.9.08-.26-.14-1.08-.77-1.61-3.14-.1.9-.27,1.55-.59,1.95-.52.66-1.11.64-1.41.56-1.45-.35-2.46-3.3-2.72-4.67-.09-.48-.13-1.29-.13-2.25-.58,1.63-1.31,2.93-2.19,3.24-.33.12-1,.21-1.7-.46-1.16-1.11-.5-10.06.73-13.53,1.51-4.24,6.55-12.29,9.46-15.11,5.33-5.15,10.68-3.72,13.92-.67,2.23,2.1,3.33,5.85,2.68,9.11h0c-.06.91-.41,4.02-.95,6.8-.96,4.93-2.21,7.62-3.81,8.22-.61.23-1.2.19-1.71-.11-.76-.45-1.32-1.47-1.69-3.09-.43.5-.74.86-.92,1.05-.11,1.4-.9,6.18-1.63,9.83-.33,1.63-.92,2.53-1.82,2.77-.15.04-.29.06-.43.06ZM646.72,358.86c.19,0,.38.08.51.23.22.25.76.67,1.08.59.25-.07.61-.56.84-1.73.84-4.21,1.62-9.2,1.62-9.83,0-.17.06-.33.17-.46,0,0,.77-.85,1.96-2.29.17-.2.44-.29.7-.22.26.07.45.29.48.55.39,2.74,1.04,3.4,1.3,3.56.11.06.26.12.55.01,2.07-.78,3.5-8.98,3.91-13.95.47-2.4-.05-5.85-2.27-7.95h0c-2.79-2.63-7.41-3.84-12.06.65-2.75,2.66-7.7,10.57-9.13,14.59-1.42,3.98-1.41,11.14-1.02,12.16.12.1.2.13.27.11,1.11-.39,2.45-5.61,3.05-10.22.05-.36.38-.62.74-.58.36.04.63.36.6.72-.19,2.28-.61,8.53-.31,10.11.33,1.76,1.27,3.45,1.69,3.6,0-.01.03-.03.06-.07.37-.47.42-2.64.46-4.38.07-2.67.13-5.43.99-6.94.16-.27.48-.4.78-.31.3.09.5.38.47.7-.41,5.12-.07,11.07,1.2,11.77.21.11.52.02.93-.29.12-.09.26-.13.4-.13ZM635.39,354.82h0Z" fill="#5b4037"/><path d="M702.94,341.6s-.1,0-.15-.02c-.36-.08-.59-.44-.51-.8,2.09-9.42,2.87-28.68,1.98-49.07-.97-22.3,2.24-40.2,2.28-40.37.07-.37.42-.6.78-.54.37.07.61.42.54.78-.03.18-3.22,17.93-2.26,40.07.89,20.5.1,39.9-2.01,49.42-.07.31-.35.53-.66.53Z" fill="#5b4037"/><path d="M653.43,346.48c-.15,0-.3-.05-.42-.15-.29-.23-.33-.66-.1-.95l1.82-2.24c.23-.29.66-.33.95-.1.29.23.33.66.1.95l-1.82,2.24c-.13.16-.33.25-.52.25Z" fill="#5b4037"/></svg>