<svg xmlns="http://www.w3.org/2000/svg" viewBox="0 0 100 100" role="img" aria-label="Rose">
  <g fill="none" stroke="currentColor" stroke-width="4.5" stroke-linecap="round" stroke-linejoin="round">
    <path d="M50 46 C45 46 43 50 46 54 C50 59 57 55 56 49 C55 41 46 39 40 44 C33 50 35 61 43 66 C53 72 66 66 69 55"/>
    <path d="M31 47 C25 36 32 24 44 22"/>
    <path d="M69 47 C76 37 70 24 57 22"/>
    <path d="M31 56 C24 61 22 71 27 79"/>
    <path d="M50 66 L50 92"/>
    <path d="M50 79 C42 73 32 74 26 80 C34 86 45 85 50 80"/>
    <path d="M50 73 C58 67 68 68 74 74 C66 80 55 79 50 74"/>
  </g>
</svg>
