<svg id="Layer_1" data-name="Layer 1" xmlns="http://www.w3.org/2000/svg" viewBox="0 0 256 256"><path d="M151.09,117.55H150c-.14-3.25.18-7.23,1.6-9.28l.81-1.16c3.24-4.61,7.21-10.35,7.91-20.14l12.46-18.06a11.77,11.77,0,0,0-9-18.49A11.83,11.83,0,0,0,158.9,38.7a11.71,11.71,0,0,0-7-2,11.77,11.77,0,0,0-13.94-11.6,10.83,10.83,0,0,0-2,.58,11.59,11.59,0,0,0-4.4-5.85,11.84,11.84,0,0,0-16.46,3l-7.48,10.84C99.92,32,93.33,36.82,90.47,40.33l-6.53,7.86c-14.31,16.7,5,40.93,5.94,42.09,0,0,1.69,1.88,8.62,9.74,4.33,4.91,3.64,13.31,2.94,17.53H98.8a3.51,3.51,0,0,0-3.51,3.5V152a3.51,3.51,0,0,0,3.51,3.51h1.61v77.06a3.51,3.51,0,1,0,7,0V155.49H142.5v77.06a3.51,3.51,0,1,0,7,0V155.49h1.58a3.5,3.5,0,0,0,3.5-3.51V121.05A3.5,3.5,0,0,0,151.09,117.55Zm16.72-56.23a4.79,4.79,0,0,1-.76,3.61l-13,18.8a4.82,4.82,0,1,1-7.93-5.47l13-18.81a4.81,4.81,0,0,1,8.7,1.87ZM154.92,44.48a4.82,4.82,0,0,1,1.23,6.7L137.69,77.91a4.79,4.79,0,0,1-8.6-3.91,11.22,11.22,0,0,0,9-5l.53-.75a11.71,11.71,0,0,0,2-8.83,12,12,0,0,0-.52-1.89l8.19-11.87a4.84,4.84,0,0,1,6.71-1.22Zm-42.75,24,1.46-2.12,7.89,5.54L120.1,74a4.82,4.82,0,1,1-7.93-5.48Zm27-36.52a4.85,4.85,0,0,1,3.61.76A4.85,4.85,0,0,1,144,39.42l-4.14,6-4.33,6.28-7.89-5.54,6.85-9.92h0l1.59-2.3A4.78,4.78,0,0,1,139.19,32ZM120.8,26.79a4.82,4.82,0,0,1,6.71-1.23,4.83,4.83,0,0,1,1.22,6.7l-6.81,9.88L114,36.6Zm-17,68.6c-6.73-7.64-8.52-9.65-8.54-9.66-.37-.46-16.4-20.79-5.92-33l6.58-7.93c.26-.32,6.47-7.8,13.83-2.66h0l22,15.42a4.84,4.84,0,0,1,1.18,6.71l-.52.75a4.84,4.84,0,0,1-6.72,1.17L107,53.15a3.51,3.51,0,0,0-4,5.74l4.88,3.43-1.5,2.17A11.82,11.82,0,0,0,116.09,83a11.38,11.38,0,0,0,2.17-.2,11.56,11.56,0,0,0,3.28-1.17,2.5,2.5,0,0,1,.33.62c.77,2,.55,7.39-5.17,14.36a3.51,3.51,0,0,0,.48,4.94,3.46,3.46,0,0,0,2.22.8,3.51,3.51,0,0,0,2.71-1.28c4.17-5.08,6.55-10.36,7-15.06a11.76,11.76,0,0,0,4.6,1,11.94,11.94,0,0,0,5.54-1.39,11.66,11.66,0,0,0,4.13,5.11h0a11.22,11.22,0,0,0,8.92,1.82,35,35,0,0,1-5.59,10.52l-.84,1.2c-2.65,3.84-3,9.45-2.84,13.27h-34.5C109.32,111.87,109.6,102,103.76,95.39Zm.15,53.09h-1.6V124.56H132.5L130,133H127.5a3.51,3.51,0,0,0,0,7h.38l-2.53,8.45Zm28.76,0,7.15-23.92h7.76v23.92H132.67Z"/><path d="M86.81,95.82a10.48,10.48,0,0,0-5-1.45A10.58,10.58,0,0,0,70.74,83.14,10.58,10.58,0,0,0,57.62,74a9.4,9.4,0,0,0-1.29.46,10.66,10.66,0,0,0-18.76-.91L31.93,83c-6.7-.83-12.12,3.71-14.42,6.92L12.35,97c-11.17,14.85,5.26,34,7.17,36.09.66.88,2.64,3.2,8.33,8.3,2.06,1.84,3.13,10.31,2.82,17.32l2.2,75.15a3.51,3.51,0,0,0,3.5,3.4h.11a3.5,3.5,0,0,0,3.4-3.6l-2.2-74.89c.13-2.89.5-17.55-5.15-22.61-6-5.35-7.32-7.18-7.33-7.18a5.32,5.32,0,0,0-.36-.47c-.15-.16-15-16.55-6.85-27.34L23.18,94c.5-.68,5-6.55,11-2.92h0l19.66,12a3.65,3.65,0,0,1,1.22,5l-.42.68a3.66,3.66,0,0,1-5,1.21L33.08,99.86a3.51,3.51,0,1,0-3.66,6l3.94,2.41-.91,1.52a10.64,10.64,0,0,0,11.73,15.81,11.21,11.21,0,0,0,2.46-1,3.34,3.34,0,0,1,.28.89c.22,1.08.57,5.09-3.86,11.25a3.5,3.5,0,0,0,.8,4.89,3.47,3.47,0,0,0,2,.66,3.5,3.5,0,0,0,2.85-1.46c3.17-4.4,5-8.89,5.26-12.87a10.67,10.67,0,0,0,8-.93,10.44,10.44,0,0,0,9.2,5.41,11,11,0,0,0,1.89-.24,30.77,30.77,0,0,1-4,8.43l-.66,1.09c-3.09,5.16-1.65,13.33-1.29,15.08l6.19,74.67a3.51,3.51,0,0,0,3.49,3.22h.29a3.52,3.52,0,0,0,3.21-3.79L74.13,156a2.44,2.44,0,0,0-.07-.46c-.49-2.29-1-7.79.4-10.21l.64-1c2.54-4.16,5.65-9.33,5.74-17.81l9.62-16a10.68,10.68,0,0,0-3.65-14.62ZM43.59,77.19a3.66,3.66,0,0,1,5-1.25,3.64,3.64,0,0,1,1.25,5L46.08,87.2l-1.29,2.14-6.22-3.79ZM50.77,93l6.31-10.51a3.64,3.64,0,0,1,6.25,3.74L62.1,88.29h0l-2.55,4.26L57,96.8ZM39.72,118.37a3.65,3.65,0,0,1-1.26-5l.89-1.47,6.22,3.8-.86,1.42a3.64,3.64,0,0,1-5,1.24ZM55,120.82a3.63,3.63,0,0,1-1.72-3.48c.26,0,.53,0,.79-.09a10.53,10.53,0,0,0,6.59-4.79l.42-.67a10.61,10.61,0,0,0,.77-9.47L68.11,91.9a3.64,3.64,0,1,1,6.24,3.75L60,119.56A3.66,3.66,0,0,1,55,120.82Zm29.44-14L74.36,123.65a3.63,3.63,0,0,1-5,1.25h0a3.64,3.64,0,0,1-1.25-5L78.2,103.08a3.62,3.62,0,0,1,2.24-1.65,4,4,0,0,1,.9-.11,3.65,3.65,0,0,1,3.11,5.51Z"/><path d="M51.78,149.85a3.5,3.5,0,0,0-3.27,3.72L51,192.46a3.5,3.5,0,0,0,3.49,3.28h.23A3.52,3.52,0,0,0,58,192L55.5,153.12A3.52,3.52,0,0,0,51.78,149.85Z"/><path d="M225.43,147.18c3.07-3.77,6.84-8.48,8.07-16.86l11.68-14.61a10.69,10.69,0,0,0-1.66-15,10.67,10.67,0,0,0-4.75-2.11A10.59,10.59,0,0,0,229.3,86a10.53,10.53,0,0,0-13.13-10.5,10.66,10.66,0,0,0-18.46-3.41l-6.85,8.57c-6.53-1.72-12.51,2-15.22,4.92l-6.06,6.33c-13.06,13.22.66,34.36,2.27,36.73.53.95,2.18,3.52,7.14,9.34,1.46,1.71,1.54,8.85.78,15.67l-.29-.13a3.51,3.51,0,0,0-5,2.84l-6.66,74.79A3.51,3.51,0,0,0,171,235a3.47,3.47,0,0,0,3.8-3.18l6.24-70c7.66,2.86,23.68,7.46,39.56,3.46L214.7,234.5a3.51,3.51,0,0,0,3.19,3.79h.31a3.49,3.49,0,0,0,3.48-3.21l6.33-74.5a3.51,3.51,0,0,0-4.75-3.57l-.18.06c0-3.9.56-7.68,1.58-8.94Zm15-38.53a3.57,3.57,0,0,1-.77,2.68l-12.25,15.32a3.64,3.64,0,0,1-5.69-4.55L234,106.78a3.63,3.63,0,0,1,2.44-1.34,3.68,3.68,0,0,1,2.68.77A3.62,3.62,0,0,1,240.47,108.65ZM232,96.22a3.6,3.6,0,0,1-.77,2.68l-17.42,21.77a3.62,3.62,0,0,1-6.37-3.06,10.6,10.6,0,0,0,8-3.9l.49-.6a10.07,10.07,0,0,0,2-9.28l7.6-9.49a3.67,3.67,0,0,1,5.11-.57A3.64,3.64,0,0,1,232,96.22Zm-38.71,15.44,1.08-1.34,5.65,4.59-1,1.3a3.64,3.64,0,0,1-5.69-4.55ZM221,83a3.65,3.65,0,0,1,.57,5.12l-7.7,9.62-5.65-4.6,1.5-1.88,6.16-7.69A3.65,3.65,0,0,1,221,83Zm-17.78-6.49a3.63,3.63,0,0,1,6.45,1.88,3.56,3.56,0,0,1-.77,2.67l-6.12,7.65-5.65-4.59Zm-16.64,79.73c.87-6.37,1.79-18.06-2.23-22.77-5.2-6.1-6.29-8.1-6.29-8.1a5.39,5.39,0,0,0-.3-.52c-.13-.18-12.61-18.4-3.12-28l6.1-6.38c.59-.61,5.88-5.82,11.34-1.41l17.88,14.54a3.67,3.67,0,0,1,.52,5.13l-.49.6a3.64,3.64,0,0,1-5.12.53L189.73,97.53a3.5,3.5,0,0,0-4.42,5.44l3.58,2.92-1.11,1.39a10.58,10.58,0,0,0,12.06,16.56,3.18,3.18,0,0,1,.18.94c.07,1.1-.12,5.13-5.33,10.63a3.51,3.51,0,1,0,5.09,4.82c3.74-3.95,6.11-8.17,6.93-12.09a10.06,10.06,0,0,0,8,.14,10.48,10.48,0,0,0,9.84,6.74c.16,0,.3,0,.46-.05a31.19,31.19,0,0,1-5.06,7.79l-.8,1c-2.94,3.66-3.24,10.9-3.12,15.24C204.83,161,193.55,158.46,186.55,156.21Z"/><path d="M186.67,176.86a3.52,3.52,0,0,0-3.74,3.25l-.58,8.1A3.51,3.51,0,0,0,185.6,192h.25a3.51,3.51,0,0,0,3.5-3.26l.57-8.1A3.5,3.5,0,0,0,186.67,176.86Z"/></svg>